<svg width="24" height="23" viewBox="0 0 24 23" fill="none" xmlns="http://www.w3.org/2000/svg">
<g clip-path="url(#clip0_77_271)">
<path d="M13.5268 17.6716L19.6665 11.5L13.5268 5.3283C13.4713 5.25548 13.4009 5.19543 13.3202 5.15221C13.2395 5.10899 13.1505 5.0836 13.0592 5.07777C12.9678 5.07195 12.8763 5.08581 12.7908 5.11843C12.7053 5.15105 12.6278 5.20166 12.5635 5.26684C12.4993 5.33202 12.4498 5.41024 12.4184 5.49622C12.387 5.58219 12.3744 5.6739 12.3815 5.76515C12.3887 5.8564 12.4153 5.94505 12.4597 6.0251C12.5041 6.10515 12.5651 6.17473 12.6387 6.22913L17.2323 10.8611L5.01039 10.8611C4.84095 10.8611 4.67844 10.9284 4.55863 11.0482C4.43881 11.168 4.3715 11.3305 4.3715 11.5C4.3715 11.6694 4.43881 11.8319 4.55863 11.9517C4.67844 12.0715 4.84095 12.1389 5.01039 12.1389L17.2323 12.1389L12.6387 16.7708C12.5193 16.8911 12.4525 17.0539 12.4531 17.2235C12.4537 17.393 12.5216 17.5554 12.6419 17.6748C12.7622 17.7943 12.9251 17.8611 13.0946 17.8605C13.2641 17.8599 13.4265 17.7919 13.5459 17.6716H13.5268Z" fill="white"/>
</g>
<defs>
<clipPath id="clip0_77_271">
<rect width="23" height="23" fill="white" transform="matrix(0 1 -1 0 23.5 0)"/>
</clipPath>
</defs>
</svg>
