<svg width="21" height="20" viewBox="0 0 21 20" fill="none" xmlns="http://www.w3.org/2000/svg">
<g id="AWS-Dark logo" clip-path="url(#clip0_375_175)">
<path id="Vector" d="M15.3262 0H4.70117C2.11234 0 0.0136719 2.09867 0.0136719 4.6875V15.3125C0.0136719 17.9013 2.11234 20 4.70117 20H15.3262C17.915 20 20.0137 17.9013 20.0137 15.3125V4.6875C20.0137 2.09867 17.915 0 15.3262 0Z" fill="#242938"/>
<path id="Vector_2" d="M6.63404 8.74695C6.63404 8.93711 6.6546 9.09125 6.69058 9.20437C6.7317 9.31742 6.78309 9.44078 6.85505 9.57445C6.88075 9.61555 6.89103 9.65664 6.89103 9.69266C6.89103 9.74406 6.8602 9.79547 6.79338 9.8468L6.46957 10.0627C6.42331 10.0935 6.37705 10.109 6.33594 10.109C6.28454 10.109 6.23314 10.0833 6.18174 10.037C6.10978 9.95992 6.0481 9.87766 5.99671 9.79547C5.94531 9.70805 5.89391 9.61039 5.83738 9.49219C5.43647 9.96508 4.93277 10.2015 4.32627 10.2015C3.89453 10.2015 3.55016 10.0781 3.29831 9.83141C3.04646 9.58469 2.91797 9.25578 2.91797 8.84461C2.91797 8.40766 3.07216 8.05305 3.38569 7.78577C3.69922 7.5185 4.11554 7.38487 4.64494 7.38487C4.8197 7.38487 4.99959 7.40029 5.18976 7.42598C5.37993 7.45169 5.57524 7.4928 5.78084 7.53906V7.16386C5.78084 6.77323 5.6986 6.50082 5.53927 6.34149C5.37479 6.18216 5.09724 6.10505 4.70148 6.10505C4.52159 6.10505 4.33655 6.12562 4.14637 6.17187C3.9562 6.21813 3.77117 6.27467 3.59128 6.34662C3.50904 6.38261 3.44737 6.40316 3.41138 6.41345C3.37541 6.42373 3.34971 6.42887 3.32915 6.42887C3.2572 6.42887 3.22121 6.37747 3.22121 6.26953V6.01768C3.22121 5.93545 3.23149 5.87377 3.2572 5.83779C3.28289 5.80181 3.32915 5.76583 3.40111 5.72985C3.581 5.63734 3.79687 5.56024 4.04872 5.49856C4.30057 5.43174 4.56784 5.40091 4.85053 5.40091C5.46216 5.40091 5.90933 5.53968 6.19716 5.81723C6.47985 6.09478 6.62377 6.51624 6.62377 7.08162V8.74695H6.63404ZM4.54728 9.5282C4.7169 9.5282 4.89165 9.49734 5.07668 9.43562C5.26172 9.37398 5.42619 9.26086 5.56496 9.10672C5.6472 9.00906 5.70887 8.90109 5.73972 8.77773C5.77055 8.65437 5.79112 8.50531 5.79112 8.33063V8.11469C5.64206 8.07875 5.48273 8.04789 5.31825 8.02734C5.15378 8.0068 4.99445 7.99648 4.83511 7.99648C4.49074 7.99648 4.23889 8.06336 4.06928 8.20211C3.89966 8.34086 3.81743 8.53617 3.81743 8.7932C3.81743 9.03477 3.87911 9.21461 4.0076 9.33797C4.13096 9.46648 4.31085 9.5282 4.54728 9.5282ZM8.67453 10.0833C8.58203 10.0833 8.52031 10.0678 8.47922 10.0319C8.43812 10.001 8.40211 9.92906 8.37133 9.83141L7.16345 5.85834C7.1326 5.75555 7.11719 5.68873 7.11719 5.65276C7.11719 5.57052 7.1583 5.52426 7.24054 5.52426H7.74424C7.84188 5.52426 7.90875 5.53968 7.94469 5.57566C7.98578 5.6065 8.01664 5.67845 8.0475 5.77611L8.91094 9.17867L9.71281 5.77611C9.73852 5.67331 9.7693 5.6065 9.81047 5.57566C9.85156 5.54482 9.92352 5.52426 10.016 5.52426H10.4272C10.5248 5.52426 10.5917 5.53968 10.6328 5.57566C10.6739 5.6065 10.7099 5.67845 10.7305 5.77611L11.5426 9.21977L12.4317 5.77611C12.4626 5.67331 12.4986 5.6065 12.5345 5.57566C12.5756 5.54482 12.6425 5.52426 12.735 5.52426H13.213C13.2952 5.52426 13.3415 5.56538 13.3415 5.65276C13.3415 5.67845 13.3363 5.70416 13.3312 5.73499C13.3261 5.76583 13.3158 5.80695 13.2952 5.86348L12.0566 9.83656C12.0257 9.93937 11.9897 10.0062 11.9486 10.037C11.9075 10.0678 11.8406 10.0884 11.7533 10.0884H11.3113C11.2136 10.0884 11.1468 10.073 11.1057 10.037C11.0645 10.001 11.0286 9.93422 11.008 9.83141L10.2113 6.51624L9.41984 9.82625C9.39414 9.92906 9.36328 9.99586 9.32219 10.0319C9.28102 10.0678 9.20906 10.0833 9.11656 10.0833H8.67453ZM15.2792 10.222C15.012 10.222 14.7447 10.1912 14.4877 10.1295C14.2307 10.0678 14.0302 10.001 13.8966 9.92391C13.8144 9.87766 13.7578 9.82625 13.7373 9.78C13.7167 9.73375 13.7064 9.68234 13.7064 9.63609V9.37398C13.7064 9.26602 13.7475 9.21461 13.8246 9.21461C13.8555 9.21461 13.8863 9.21976 13.9171 9.23008C13.948 9.24031 13.9942 9.26086 14.0456 9.28148C14.2204 9.35852 14.4105 9.42023 14.611 9.46133C14.8166 9.5025 15.017 9.52305 15.2227 9.52305C15.5465 9.52305 15.7983 9.46648 15.973 9.35344C16.1478 9.24031 16.2403 9.07586 16.2403 8.86516C16.2403 8.72125 16.1941 8.60297 16.1016 8.50531C16.0091 8.40766 15.8343 8.32031 15.5824 8.23805L14.8372 8.0068C14.462 7.88859 14.1844 7.71381 14.0148 7.48252C13.8452 7.25637 13.7578 7.00452 13.7578 6.73725C13.7578 6.52138 13.8041 6.33121 13.8966 6.16673C13.9891 6.00226 14.1124 5.85834 14.2666 5.74527C14.4209 5.62705 14.5956 5.53968 14.8012 5.478C15.0068 5.41632 15.2227 5.39062 15.4488 5.39062C15.5619 5.39062 15.6801 5.39577 15.7932 5.41119C15.9114 5.4266 16.0193 5.44716 16.1273 5.46772C16.2301 5.49342 16.3277 5.51912 16.4202 5.54996C16.5127 5.5808 16.5847 5.61163 16.6361 5.64248C16.708 5.68359 16.7595 5.72471 16.7903 5.77097C16.8211 5.81209 16.8366 5.86862 16.8366 5.94059V6.18216C16.8366 6.29009 16.7955 6.34662 16.7184 6.34662C16.6772 6.34662 16.6104 6.32607 16.523 6.28495C16.2301 6.15131 15.9011 6.0845 15.5362 6.0845C15.2432 6.0845 15.012 6.13076 14.8526 6.22841C14.6933 6.32607 14.611 6.47513 14.611 6.68585C14.611 6.82977 14.6624 6.95312 14.7652 7.05078C14.868 7.14844 15.0582 7.24609 15.3306 7.33347L16.0605 7.56476C16.4305 7.68298 16.6978 7.84742 16.8571 8.0582C17.0164 8.26891 17.0935 8.51047 17.0935 8.77773C17.0935 8.99875 17.0473 9.19922 16.9599 9.37398C16.8674 9.54875 16.7441 9.70289 16.5847 9.82625C16.4254 9.95477 16.2352 10.0473 16.0142 10.1141C15.7829 10.1861 15.5413 10.222 15.2792 10.222Z" fill="white"/>
<path id="Vector_3" fill-rule="evenodd" clip-rule="evenodd" d="M16.2509 12.7202C14.5599 13.9692 12.1031 14.6322 9.99062 14.6322C7.03012 14.6322 4.36256 13.5374 2.34776 11.7179C2.18843 11.574 2.33234 11.3787 2.52251 11.4918C4.70179 12.7561 7.3899 13.522 10.1705 13.522C12.0466 13.522 14.1077 13.1314 16.0042 12.3296C16.2869 12.2011 16.5284 12.5146 16.2509 12.7202Z" fill="#FF9900"/>
<path id="Vector_4" fill-rule="evenodd" clip-rule="evenodd" d="M16.9552 11.9186C16.7393 11.641 15.5264 11.7849 14.9764 11.8517C14.8119 11.8723 14.7862 11.7283 14.9353 11.6205C15.9015 10.942 17.4897 11.1373 17.6748 11.3634C17.8598 11.5948 17.6234 13.183 16.7188 13.9437C16.58 14.0619 16.4464 14.0001 16.508 13.846C16.7136 13.3372 17.171 12.1909 16.9552 11.9186Z" fill="#FF9900"/>
</g>
<defs>
<clipPath id="clip0_375_175">
<rect width="20" height="20" fill="white" transform="translate(0.0136719)"/>
</clipPath>
</defs>
</svg>
