<svg width="51" height="51" viewBox="0 0 51 51" fill="none" xmlns="http://www.w3.org/2000/svg">
<path d="M45.091 14.6493C44.3789 13.4293 43.3512 12.4236 42.116 11.7381L29.366 4.70432C28.1806 4.06636 26.8554 3.73242 25.5091 3.73242C24.1629 3.73242 22.8377 4.06636 21.6523 4.70432L8.90227 11.7381C7.66707 12.4236 6.63939 13.4293 5.92727 14.6493C5.20475 15.8722 4.82319 17.2664 4.82227 18.6868V32.3081C4.83219 33.7226 5.21451 35.1096 5.93074 36.3294C6.64697 37.5492 7.67186 38.5589 8.90227 39.2568L21.6523 46.2693C22.8323 46.9243 24.1596 47.2679 25.5091 47.2679C26.8587 47.2679 28.186 46.9243 29.366 46.2693L42.116 39.2356C43.3496 38.5486 44.3766 37.5437 45.0904 36.3255C45.8041 35.1072 46.1786 33.72 46.1748 32.3081V18.7931C46.2108 17.3373 45.8351 15.901 45.091 14.6493ZM42.966 32.3081C42.9745 33.1532 42.7537 33.9849 42.3272 34.7146C41.9006 35.4443 41.2842 36.0446 40.5435 36.4518L27.7935 43.4856C27.5697 43.6117 27.3359 43.7108 27.0923 43.7831V26.4006L42.6048 17.0718C42.8003 17.5861 42.8938 18.1343 42.881 18.6868L42.966 32.3081Z" fill="url(#paint0_linear_320_332)"/>
<defs>
<linearGradient id="paint0_linear_320_332" x1="25.4997" y1="3.73242" x2="25.4997" y2="47.2679" gradientUnits="userSpaceOnUse">
<stop stop-color="#FF8000"/>
<stop offset="0.5" stop-color="#00F2FF"/>
<stop offset="1" stop-color="#4800FF"/>
</linearGradient>
</defs>
</svg>
