<svg width="26" height="25" viewBox="0 0 26 25" fill="none" xmlns="http://www.w3.org/2000/svg">
<g id="lineicons:angle-double-right">
<path id="Vector" d="M6.49457 18.22C6.42088 18.2886 6.36178 18.3714 6.32079 18.4634C6.27979 18.5554 6.25775 18.6547 6.25598 18.7554C6.2542 18.8561 6.27272 18.9562 6.31045 19.0496C6.34817 19.143 6.40431 19.2278 6.47553 19.299C6.54675 19.3702 6.63158 19.4264 6.72497 19.4641C6.81836 19.5018 6.91839 19.5203 7.01909 19.5186C7.11979 19.5168 7.21911 19.4947 7.31111 19.4537C7.40311 19.4128 7.48591 19.3537 7.55457 19.28L13.8046 13.03C13.945 12.8893 14.0239 12.6987 14.0239 12.5C14.0239 12.3012 13.945 12.1106 13.8046 11.97L7.55457 5.71997C7.41239 5.58749 7.22435 5.51537 7.03005 5.51879C6.83574 5.52222 6.65036 5.60093 6.51295 5.73835C6.37553 5.87576 6.29682 6.06114 6.29339 6.25545C6.28996 6.44975 6.36209 6.63779 6.49457 6.77997L12.2146 12.5L6.49457 18.22Z" fill="black"/>
<path id="Vector_2" d="M10.9946 18.22C10.9209 18.2886 10.8618 18.3714 10.8208 18.4634C10.7798 18.5554 10.7578 18.6547 10.756 18.7554C10.7542 18.8561 10.7727 18.9562 10.8104 19.0496C10.8482 19.143 10.9043 19.2278 10.9755 19.299C11.0467 19.3702 11.1316 19.4264 11.225 19.4641C11.3184 19.5018 11.4184 19.5203 11.5191 19.5186C11.6198 19.5168 11.7191 19.4947 11.8111 19.4537C11.9031 19.4128 11.9859 19.3537 12.0546 19.28L18.3046 13.03C18.445 12.8893 18.5239 12.6987 18.5239 12.5C18.5239 12.3012 18.445 12.1106 18.3046 11.97L12.0546 5.71997C11.9124 5.58749 11.7243 5.51537 11.53 5.51879C11.3357 5.52222 11.1504 5.60093 11.0129 5.73835C10.8755 5.87576 10.7968 6.06114 10.7934 6.25545C10.79 6.44975 10.8621 6.63779 10.9946 6.77997L16.7146 12.5L10.9946 18.22Z" fill="black"/>
</g>
</svg>
