<svg width="89" height="82" viewBox="0 0 89 82" fill="none" xmlns="http://www.w3.org/2000/svg">
<rect width="89" height="82" rx="16" fill="#4C4C4C" fill-opacity="0.2"/>
<path d="M31.2002 25.3999C31.6177 25.3999 32.0206 25.5449 32.3408 25.8071L32.4736 25.9272C32.811 26.2647 32.9999 26.7225 33 27.1997C33 27.6771 32.8112 28.1356 32.4736 28.4731C32.1361 28.8107 31.6776 28.9995 31.2002 28.9995C30.7825 28.9995 30.3798 28.8547 30.0596 28.5923L29.9277 28.4731C29.5902 28.1356 29.4004 27.6771 29.4004 27.1997C29.4004 26.7821 29.5453 26.3793 29.8076 26.0591L29.9277 25.9272C30.2231 25.6319 30.6104 25.4496 31.0225 25.4087L31.2002 25.3999ZM38.1006 25.3999C38.5182 25.3999 38.921 25.5448 39.2412 25.8071L39.373 25.9272C39.7106 26.2648 39.9003 26.7224 39.9004 27.1997C39.9004 27.6172 39.7554 28.0201 39.4932 28.3403L39.373 28.4731C39.0356 28.8105 38.5778 28.9995 38.1006 28.9995C37.683 28.9995 37.2802 28.8546 36.96 28.5923L36.8271 28.4731C36.4896 28.1356 36.3008 27.6771 36.3008 27.1997C36.3008 26.7821 36.4456 26.3793 36.708 26.0591L36.8271 25.9272C37.1226 25.6318 37.5107 25.4495 37.9229 25.4087L38.1006 25.3999ZM45 25.3999C45.4177 25.3999 45.8213 25.5447 46.1416 25.8071L46.2734 25.9272C46.6108 26.2647 46.8007 26.7225 46.8008 27.1997C46.8008 27.6771 46.611 28.1356 46.2734 28.4731C45.9359 28.8106 45.4773 28.9995 45 28.9995C44.5228 28.9994 44.065 28.8105 43.7275 28.4731C43.39 28.1356 43.2002 27.6771 43.2002 27.1997C43.2002 26.782 43.3459 26.3794 43.6084 26.0591L43.7275 25.9272C44.065 25.5898 44.5228 25.4 45 25.3999Z" fill="#00AAFF" stroke="#0066FF"/>
<path d="M22.3473 35.25H68.0001M38.1001 63.9538V36.4M22.1266 50.2C22.1266 39.3578 22.0001 24.7367 25.3673 21.3672C28.7391 18 34.1579 18 45.0001 18C55.8423 18 61.2634 18 64.6306 21.3672C68.0001 24.739 68.0001 30.1578 68.0001 41C68.0001 51.8422 68.0001 57.2633 64.6306 60.6305C61.2657 64 55.8423 64 45.0001 64C34.1579 64 28.7368 64 25.3673 60.6305C23.1294 58.3926 22.3773 55.2439 22.1266 50.2Z" stroke="#0066FF" stroke-width="3" stroke-linecap="round"/>
</svg>
