<svg width="89" height="82" viewBox="0 0 89 82" fill="none" xmlns="http://www.w3.org/2000/svg">
<rect width="89" height="82" rx="16" fill="#4C4C4C" fill-opacity="0.2"/>
<path d="M60.2086 42.0335C60.3939 41.6995 60.4911 41.3238 60.4911 40.9418C60.4911 40.5598 60.3939 40.1842 60.2086 39.8502C59.989 39.4836 59.6791 39.1795 59.3085 38.9668L55.5086 37.1002L59.3419 35.1335C59.706 34.9479 60.0117 34.6653 60.2252 34.3168C60.4419 33.9602 60.5585 33.5502 60.5585 33.1335C60.5585 32.7202 60.4419 32.3168 60.2252 31.9668C60.0096 31.6038 59.6904 31.3136 59.3085 31.1335L45.9752 24.6002C45.6699 24.4476 45.3332 24.3682 44.9919 24.3682C44.6505 24.3682 44.3139 24.4476 44.0086 24.6002L30.6752 31.1502C30.3048 31.3407 29.9936 31.6288 29.7752 31.9835C29.5583 32.334 29.4434 32.738 29.4434 33.1502C29.4434 33.5623 29.5583 33.9664 29.7752 34.3168C29.9819 34.6735 30.2886 34.9635 30.6586 35.1502L34.4586 37.1002L30.6586 38.9168C30.2928 39.1077 29.987 39.3961 29.7752 39.7502C29.5583 40.1006 29.4434 40.5046 29.4434 40.9168C29.4434 41.329 29.5583 41.733 29.7752 42.0835C29.9819 42.4402 30.2886 42.7302 30.6586 42.9168L34.4586 44.8668L30.6586 46.6835C30.2928 46.8743 29.987 47.1628 29.7752 47.5168C29.5583 47.8673 29.4434 48.2713 29.4434 48.6835C29.4434 49.0957 29.5583 49.4997 29.7752 49.8502C29.9869 50.2035 30.2919 50.4918 30.6586 50.6835L43.9919 57.3502C44.3102 57.5335 44.6719 57.6318 45.0419 57.6335C45.3985 57.6368 45.7495 57.5448 46.0586 57.3668L59.4919 50.5502C59.9823 50.2459 60.337 49.765 60.4828 49.2066C60.6286 48.6483 60.5543 48.0553 60.2752 47.5502C60.0556 47.1836 59.7458 46.8795 59.3752 46.6668L55.5585 44.8002L59.4919 42.7835C59.784 42.5904 60.029 42.3341 60.2086 42.0335ZM44.9752 47.4668L37.8752 43.8502L37.5586 43.7002L32.1919 40.9335L37.1919 38.5168L43.8586 41.9668C44.1785 42.1452 44.5419 42.2368 44.9086 42.2335C45.2639 42.2444 45.6155 42.1579 45.9252 41.9835L52.5919 38.5335L57.5919 40.9502L44.9752 47.4668Z" fill="#0066FF"/>
</svg>
