<svg width="89" height="82" viewBox="0 0 89 82" fill="none" xmlns="http://www.w3.org/2000/svg">
<rect width="89" height="82" rx="16" fill="#4C4C4C" fill-opacity="0.2"/>
<g clip-path="url(#clip0_318_88)">
<path d="M54.5625 23H35.4375C34.6916 23 33.9762 23.2963 33.4488 23.8238C32.9213 24.3512 32.625 25.0666 32.625 25.8125V56.1875C32.625 56.9334 32.9213 57.6488 33.4488 58.1762C33.9762 58.7037 34.6916 59 35.4375 59H54.5625C55.3084 59 56.0238 58.7037 56.5512 58.1762C57.0787 57.6488 57.375 56.9334 57.375 56.1875V25.8125C57.375 25.0666 57.0787 24.3512 56.5512 23.8238C56.0238 23.2963 55.3084 23 54.5625 23ZM54.5625 56.1875H35.4375V25.8125H54.5625V56.1875Z" fill="#0066FF"/>
<path d="M45.0002 53.375C45.9943 53.375 46.8002 52.6195 46.8002 51.6875C46.8002 50.7555 45.9943 50 45.0002 50C44.0061 50 43.2002 50.7555 43.2002 51.6875C43.2002 52.6195 44.0061 53.375 45.0002 53.375Z" fill="#0066FF"/>
</g>
<defs>
<clipPath id="clip0_318_88">
<rect width="36" height="36" fill="white" transform="translate(27 23)"/>
</clipPath>
</defs>
</svg>
