<svg width="89" height="82" viewBox="0 0 89 82" fill="none" xmlns="http://www.w3.org/2000/svg">
<rect width="89" height="82" rx="16" fill="#4C4C4C" fill-opacity="0.2"/>
<g clip-path="url(#clip0_318_122)">
<path d="M51.9487 47.7558C53.2548 47.6444 54.2628 46.4958 54.1987 45.1244C54.1278 43.753 53.0028 42.6528 51.6382 42.6528H51.5437C50.864 42.6771 50.2219 42.9703 49.7584 43.468C49.2949 43.9657 49.048 44.627 49.072 45.3066C49.1182 46.0278 49.4107 46.6071 49.8157 47.0346C48.2395 50.0935 45.8838 52.339 42.304 54.2301C39.9022 55.4845 37.3642 55.9593 34.8925 55.6195C32.8237 55.3326 31.207 54.4079 30.217 52.924C28.7332 50.674 28.5982 48.2541 29.8357 45.823C30.7368 44.0714 32.0857 42.7866 32.9812 42.16C32.7121 41.4062 32.5026 40.6325 32.3545 39.8459C25.699 44.6103 26.3785 51.1319 28.4002 54.2088C29.9065 56.4588 32.9812 57.8943 36.3505 57.8943C37.2539 57.8943 38.1967 57.8301 39.1169 57.6006C44.9658 56.4756 49.3893 52.9713 51.925 47.8041L51.9487 47.7558ZM59.9699 42.1375C56.4903 38.047 51.3625 35.797 45.5215 35.797H44.7532C44.3785 34.9701 43.4988 34.4504 42.5088 34.4504H42.4447C41.0272 34.4504 39.9247 35.6688 39.9708 37.0818C40.0192 38.4284 41.1599 39.5534 42.5313 39.5534H42.6438C43.1304 39.5338 43.6011 39.3748 44 39.0954C44.3988 38.816 44.7091 38.4279 44.8938 37.9773H45.7252C49.189 37.9773 52.465 38.9909 55.4587 40.9664C57.7435 42.4705 59.3905 44.4528 60.3097 46.813C61.1185 48.7401 61.0713 50.6335 60.2388 52.2096C58.9619 54.6756 56.7997 55.9818 53.9523 55.9818C52.1534 55.9818 50.4018 55.4193 49.4984 55.0154C48.9595 55.4609 48.0573 56.2045 47.4059 56.6568C49.387 57.5523 51.385 58.0686 53.3189 58.0686C57.7019 58.0686 60.9599 55.6015 62.1963 53.2176C63.5429 50.5221 63.4327 45.9805 59.9924 42.0903L59.9699 42.1375ZM36.7319 48.5646C36.7627 49.2266 37.0457 49.8516 37.523 50.3112C38.0003 50.7709 38.6354 51.0304 39.298 51.0363H39.3869C39.7247 51.0282 40.0575 50.9528 40.3657 50.8143C40.6739 50.6758 40.9513 50.477 41.1816 50.2298C41.4118 49.9825 41.5904 49.6917 41.7066 49.3745C41.8229 49.0572 41.8745 48.7199 41.8585 48.3824C41.8585 47.0335 40.693 45.9085 39.3217 45.9085H39.2272C39.1405 45.9085 39.0055 45.9085 38.8885 45.9569C37.0255 42.8103 36.2392 39.4353 36.5317 35.7959C36.7083 33.0543 37.6105 30.6749 39.2272 28.6949C40.576 27.013 43.1118 26.1749 44.8465 26.1344C49.6987 26.0399 51.7259 32.0924 51.8789 34.4954L54.1289 35.1693C53.6069 27.7983 49.0259 23.9316 44.6429 23.9316C40.5299 23.9316 36.7319 26.9196 35.203 31.3026C33.1162 37.1515 34.4875 42.7641 37.048 47.2641C36.8264 47.551 36.6914 48.073 36.7319 48.5646Z" fill="#0066FF"/>
</g>
<defs>
<clipPath id="clip0_318_122">
<rect width="36" height="36" fill="white" transform="translate(27 23)"/>
</clipPath>
</defs>
</svg>
