<svg width="89" height="82" viewBox="0 0 89 82" fill="none" xmlns="http://www.w3.org/2000/svg">
<rect width="89" height="82" rx="16" fill="#4C4C4C" fill-opacity="0.2"/>
<path d="M40.6602 31.172C41.5572 28.547 45.1842 28.4675 46.2477 30.9335L46.3377 31.1735L47.5482 34.7135C47.8256 35.5253 48.2739 36.2683 48.8628 36.8921C49.4517 37.516 50.1676 38.0063 50.9622 38.33L51.2877 38.4515L54.8277 39.6605C57.4527 40.5575 57.5322 44.1845 55.0677 45.248L54.8277 45.338L51.2877 46.5485C50.4755 46.8257 49.7323 47.2739 49.1082 47.8629C48.4841 48.4518 47.9935 49.1678 47.6697 49.9625L47.5482 50.2865L46.3392 53.828C45.4422 56.453 41.8152 56.5325 40.7532 54.068L40.6602 53.828L39.4512 50.288C39.1739 49.4759 38.7257 48.7327 38.1368 48.1085C37.5478 47.4844 36.8319 46.9938 36.0372 46.67L35.7132 46.5485L32.1732 45.3395C29.5467 44.4425 29.4672 40.8155 31.9332 39.7535L32.1732 39.6605L35.7132 38.4515C36.525 38.1741 37.2679 37.7258 37.8918 37.1369C38.5157 36.5479 39.006 35.832 39.3297 35.0375L39.4512 34.7135L40.6602 31.172ZM43.4997 32.141L42.2907 35.681C41.8683 36.919 41.1811 38.05 40.277 38.9952C39.3729 39.9405 38.2736 40.6774 37.0557 41.1545L36.6807 41.291L33.1407 42.5L36.6807 43.709C37.9186 44.1314 39.0496 44.8186 39.9949 45.7227C40.9402 46.6268 41.6771 47.7261 42.1542 48.944L42.2907 49.319L43.4997 52.859L44.7087 49.319C45.1311 48.081 45.8183 46.95 46.7224 46.0048C47.6265 45.0595 48.7257 44.3226 49.9437 43.8455L50.3187 43.7105L53.8587 42.5L50.3187 41.291C49.0807 40.8686 47.9497 40.1814 47.0044 39.2773C46.0591 38.3732 45.3223 37.2739 44.8452 36.056L44.7102 35.681L43.4997 32.141ZM55.4997 26C55.7803 26 56.0553 26.0787 56.2934 26.2272C56.5315 26.3757 56.7232 26.588 56.8467 26.84L56.9187 27.0155L57.4437 28.5545L58.9842 29.0795C59.2654 29.175 59.5119 29.3519 59.6925 29.5877C59.8731 29.8235 59.9796 30.1076 59.9986 30.404C60.0175 30.7004 59.9481 30.9958 59.799 31.2527C59.6499 31.5096 59.4279 31.7164 59.1612 31.847L58.9842 31.919L57.4452 32.444L56.9202 33.9845C56.8245 34.2656 56.6474 34.512 56.4116 34.6925C56.1757 34.8729 55.8915 34.9793 55.5951 34.9981C55.2987 35.0169 55.0034 34.9473 54.7466 34.7981C54.4899 34.6489 54.2831 34.4268 54.1527 34.16L54.0807 33.9845L53.5557 32.4455L52.0152 31.9205C51.7339 31.825 51.4874 31.6481 51.3068 31.4123C51.1262 31.1765 51.0197 30.8924 51.0008 30.596C50.9818 30.2996 51.0513 30.0042 51.2003 29.7473C51.3494 29.4904 51.5714 29.2836 51.8382 29.153L52.0152 29.081L53.5542 28.556L54.0792 27.0155C54.1803 26.7191 54.3717 26.4619 54.6264 26.2797C54.8812 26.0976 55.1865 25.9998 55.4997 26Z" fill="#0066FF"/>
</svg>
