<svg width="89" height="82" viewBox="0 0 89 82" fill="none" xmlns="http://www.w3.org/2000/svg">
<rect width="89" height="82" rx="16" fill="#4C4C4C" fill-opacity="0.2"/>
<path d="M56.083 37.2315C56.083 41.3165 54.0722 44.4594 51.0132 46.5288C50.3007 47.0102 49.9444 47.2508 49.7687 47.5263C49.5945 47.7987 49.5328 48.1597 49.414 48.8785L49.319 49.4374C49.11 50.7009 49.0039 51.3327 48.5606 51.7079C48.1173 52.0832 47.4776 52.0832 46.1967 52.0832H42.061C40.7801 52.0832 40.1404 52.0832 39.6971 51.7079C39.2538 51.3327 39.1493 50.7009 38.9371 49.4374L38.8453 48.8785C38.7249 48.1613 38.6663 47.8018 38.4922 47.5295C38.318 47.2572 37.9602 47.0133 37.2461 46.5257C34.2203 44.4563 32.333 41.3149 32.333 37.2315C32.333 30.5704 37.6498 25.1665 44.208 25.1665C45.0058 25.1657 45.8016 25.2463 46.583 25.4072" stroke="#0066FF" stroke-width="2" stroke-linecap="round" stroke-linejoin="round"/>
<path d="M47.3743 52.0832V53.6665C47.3743 55.1596 47.3743 55.9053 46.9104 56.3693C46.4465 56.8332 45.7008 56.8332 44.2077 56.8332C42.7146 56.8332 41.9688 56.8332 41.5049 56.3693C41.041 55.9053 41.041 55.1596 41.041 53.6665V52.0832M52.1243 25.1665L52.5328 26.2701C53.068 27.7173 53.3356 28.4408 53.8628 28.9681C54.3917 29.4969 55.1153 29.7645 56.5624 30.2997L57.666 30.7082L56.5624 31.1167C55.1153 31.6518 54.3917 31.9194 53.8644 32.4467C53.3356 32.9755 53.068 33.6991 52.5328 35.1463L52.1243 36.2498L51.7159 35.1463C51.1807 33.6991 50.9131 32.9755 50.3858 32.4483C49.857 31.9194 49.1334 31.6518 47.6863 31.1167L46.5827 30.7082L47.6863 30.2997C49.1334 29.7645 49.857 29.4969 50.3843 28.9697C50.9131 28.4408 51.1807 27.7173 51.7159 26.2701L52.1243 25.1665Z" stroke="#0066FF" stroke-width="2" stroke-linecap="round" stroke-linejoin="round"/>
</svg>
