<svg width="26" height="25" viewBox="0 0 26 25" fill="none" xmlns="http://www.w3.org/2000/svg">
<path d="M6.99408 18.22C6.92039 18.2886 6.86129 18.3714 6.8203 18.4634C6.77931 18.5554 6.75726 18.6547 6.75549 18.7554C6.75371 18.8561 6.77224 18.9562 6.80996 19.0496C6.84768 19.143 6.90382 19.2278 6.97504 19.299C7.04626 19.3702 7.13109 19.4264 7.22448 19.4641C7.31787 19.5018 7.4179 19.5203 7.5186 19.5186C7.61931 19.5168 7.71862 19.4947 7.81062 19.4537C7.90262 19.4128 7.98542 19.3537 8.05408 19.28L14.3041 13.03C14.4445 12.8893 14.5234 12.6987 14.5234 12.5C14.5234 12.3012 14.4445 12.1106 14.3041 11.97L8.05408 5.71997C7.9119 5.58749 7.72386 5.51537 7.52956 5.51879C7.33526 5.52222 7.14987 5.60093 7.01246 5.73835C6.87504 5.87576 6.79633 6.06114 6.7929 6.25545C6.78948 6.44975 6.8616 6.63779 6.99408 6.77997L12.7141 12.5L6.99408 18.22Z" fill="black"/>
<path d="M11.4941 18.22C11.4204 18.2886 11.3613 18.3714 11.3203 18.4634C11.2793 18.5554 11.2573 18.6547 11.2555 18.7554C11.2537 18.8561 11.2722 18.9562 11.31 19.0496C11.3477 19.143 11.4038 19.2278 11.475 19.299C11.5463 19.3702 11.6311 19.4264 11.7245 19.4641C11.8179 19.5018 11.9179 19.5203 12.0186 19.5186C12.1193 19.5168 12.2186 19.4947 12.3106 19.4537C12.4026 19.4128 12.4854 19.3537 12.5541 19.28L18.8041 13.03C18.9445 12.8893 19.0234 12.6987 19.0234 12.5C19.0234 12.3012 18.9445 12.1106 18.8041 11.97L12.5541 5.71997C12.4119 5.58749 12.2239 5.51537 12.0296 5.51879C11.8353 5.52222 11.6499 5.60093 11.5125 5.73835C11.375 5.87576 11.2963 6.06114 11.2929 6.25545C11.2895 6.44975 11.3616 6.63779 11.4941 6.77997L17.2141 12.5L11.4941 18.22Z" fill="black"/>
</svg>
