<svg width="56" height="62" viewBox="0 0 56 62" fill="none" xmlns="http://www.w3.org/2000/svg">
<path d="M25.427 1.39856C26.9429 0.530891 28.9173 0.526971 30.4318 1.39856C38.0515 5.70404 45.6735 10.0028 53.2918 14.3109C54.7247 15.118 55.6831 16.7127 55.6686 18.3638V44.2672C55.6792 45.9866 54.626 47.6194 53.1143 48.4083C45.5197 52.69 37.9291 56.977 30.3358 61.2587C28.7886 62.1434 26.7746 62.0752 25.2757 61.1181C22.9988 59.7982 20.7181 58.4848 18.441 57.1662C17.9757 56.8888 17.4512 56.668 17.1226 56.2169C17.4131 55.8254 17.9324 55.7766 18.3543 55.6057C19.3047 55.3035 20.1776 54.8184 21.0508 54.3476C21.2715 54.1965 21.5411 54.2544 21.7527 54.3896C23.6997 55.506 25.6295 56.6547 27.583 57.7604C27.9997 58.001 28.4217 57.6816 28.7779 57.483C36.2305 53.2709 43.6923 49.0748 51.1436 44.8614C51.4197 44.7286 51.5723 44.4355 51.5499 44.1331C51.5551 35.5881 51.5512 27.0416 51.5525 18.4966C51.5841 18.1534 51.3855 17.8379 51.0752 17.6975C43.507 13.4353 35.9427 9.16667 28.3758 4.90343C28.2447 4.81327 28.0894 4.76489 27.9303 4.76466C27.7712 4.76443 27.6157 4.81235 27.4844 4.90212C19.9175 9.16667 12.3544 13.4393 4.78753 17.7012C4.47835 17.8419 4.27085 18.1521 4.30764 18.4966C4.30895 27.0416 4.30764 35.5881 4.30764 44.1344C4.29455 44.2819 4.32698 44.43 4.40055 44.5585C4.47412 44.6871 4.58531 44.7901 4.71916 44.8535C6.73843 45.9986 8.76031 47.1356 10.7809 48.2768C11.9192 48.8895 13.3168 49.2535 14.571 48.7841C15.6777 48.3871 16.4535 47.2578 16.4324 46.0826C16.4428 37.5875 16.4272 29.0911 16.4402 20.5973C16.4126 20.2202 16.7703 19.9086 17.137 19.9441C18.1072 19.9375 19.0787 19.931 20.049 19.9467C20.4539 19.9375 20.7326 20.3436 20.6826 20.7236C20.6786 29.2725 20.693 37.8216 20.676 46.3705C20.6786 48.6489 19.7426 51.128 17.6352 52.2428C15.0389 53.5877 11.8299 53.3025 9.26502 52.0129C7.04456 50.9046 4.92557 49.5967 2.74453 48.4094C1.22888 47.6249 0.180925 45.9855 0.191594 44.2674V18.3638C0.175699 16.6785 1.17227 15.0549 2.64981 14.2595C10.2431 9.97425 17.835 5.68575 25.427 1.39856Z" fill="white"/>
<path d="M32.0513 19.342C35.3631 19.1288 38.9084 19.2157 41.8886 20.8472C44.1959 22.0974 45.4751 24.7213 45.5158 27.2847C45.4514 27.6305 45.0899 27.8212 44.7598 27.7975C43.799 27.7962 42.8379 27.8106 41.877 27.791C41.4694 27.8066 41.2325 27.4308 41.1814 27.0705C40.9053 25.844 40.2364 24.6292 39.082 24.0377C37.3098 23.1504 35.2551 23.195 33.3227 23.2135C31.912 23.2884 30.395 23.4106 29.1999 24.2402C28.2824 24.8685 28.0037 26.1371 28.3311 27.1587C28.6399 27.8922 29.4866 28.1289 30.1795 28.3471C34.1705 29.3909 38.3998 29.287 42.3147 30.6607C43.9355 31.2207 45.521 32.3094 46.0758 34.0064C46.8015 36.2809 46.4834 38.9995 44.8652 40.8254C43.5529 42.328 41.6417 43.1458 39.7354 43.59C37.1994 44.1554 34.5677 44.1698 31.9923 43.9188C29.5707 43.6427 27.0506 43.0065 25.1812 41.3565C23.5826 39.9684 22.8018 37.8057 22.8793 35.7182C22.8978 35.3657 23.2488 35.1199 23.5865 35.1489C24.5541 35.141 25.5217 35.1384 26.4893 35.1502C26.8758 35.1225 27.1623 35.4565 27.1821 35.8208C27.3607 36.9894 27.7999 38.2159 28.8189 38.9087C30.7854 40.1774 33.253 40.0906 35.5048 40.126C37.3704 40.0433 39.4645 40.0183 40.9869 38.7852C41.7902 38.082 42.0281 36.9053 41.8111 35.8931C41.5759 35.0385 40.6819 34.6402 39.9142 34.3798C35.9743 33.1335 31.6977 33.5857 27.7959 32.1763C26.2119 31.6166 24.6802 30.5582 24.0716 28.9308C23.2224 26.6276 23.6115 23.7788 25.3993 22.0145C27.1425 20.2595 29.6589 19.5839 32.0513 19.342Z" fill="white"/>
</svg>
