<svg width="21" height="20" viewBox="0 0 21 20" fill="none" xmlns="http://www.w3.org/2000/svg">
<g id="Figma-Light logo" clip-path="url(#clip0_375_76)">
<path id="Vector" d="M15.8262 0H5.20117C2.61234 0 0.513672 2.09867 0.513672 4.6875V15.3125C0.513672 17.9013 2.61234 20 5.20117 20H15.8262C18.415 20 20.5137 17.9013 20.5137 15.3125V4.6875C20.5137 2.09867 18.415 0 15.8262 0Z" fill="#F4F2ED"/>
<g id="Clip path group">
<mask id="mask0_375_76" style="mask-type:luminance" maskUnits="userSpaceOnUse" x="5" y="2" width="11" height="16">
<g id="clip0_4_187">
<path id="Vector_2" d="M15.698 2.1875H5.2793V17.8125H15.698V2.1875Z" fill="white"/>
</g>
</mask>
<g mask="url(#mask0_375_76)">
<g id="Group">
<path id="Vector_3" d="M7.88445 17.8129C9.32197 17.8129 10.4886 16.6462 10.4886 15.2087V12.6045H7.88445C6.44695 12.6045 5.28027 13.7712 5.28027 15.2087C5.28027 16.6462 6.44695 17.8129 7.88445 17.8129Z" fill="#0ACF83"/>
<path id="Vector_4" d="M5.28027 9.99967C5.28027 8.56217 6.44695 7.39551 7.88445 7.39551H10.4886V12.6038H7.88445C6.44695 12.6038 5.28027 11.4372 5.28027 9.99967Z" fill="#A259FF"/>
<path id="Vector_5" d="M5.28027 4.79166C5.28027 3.35416 6.44695 2.1875 7.88445 2.1875H10.4886V7.39584H7.88445C6.44695 7.39584 5.28027 6.22916 5.28027 4.79166Z" fill="#F24E1E"/>
<path id="Vector_6" d="M10.4883 2.1875H13.0924C14.5299 2.1875 15.6966 3.35416 15.6966 4.79166C15.6966 6.22916 14.5299 7.39584 13.0924 7.39584H10.4883V2.1875Z" fill="#FF7262"/>
<path id="Vector_7" d="M15.6966 9.99967C15.6966 11.4372 14.5299 12.6038 13.0924 12.6038C11.6549 12.6038 10.4883 11.4372 10.4883 9.99967C10.4883 8.56217 11.6549 7.39551 13.0924 7.39551C14.5299 7.39551 15.6966 8.56217 15.6966 9.99967Z" fill="#1ABCFE"/>
</g>
</g>
</g>
</g>
<defs>
<clipPath id="clip0_375_76">
<rect width="20" height="20" fill="white" transform="translate(0.513672)"/>
</clipPath>
</defs>
</svg>
