<svg width="21" height="21" viewBox="0 0 21 21" fill="none" xmlns="http://www.w3.org/2000/svg">
<g id="Group">
<path id="Vector" fill-rule="evenodd" clip-rule="evenodd" d="M10.2698 0.918945C4.60767 0.918945 0.0166016 5.50934 0.0166016 11.1721C0.0166016 15.7021 2.95461 19.5454 7.02817 20.9011C7.54079 20.9962 7.72905 20.6787 7.72905 20.408C7.72905 20.1635 7.71955 19.3558 7.71493 18.4989C4.86249 19.1193 4.26076 17.2894 4.26076 17.2894C3.79418 16.1044 3.12223 15.7891 3.12223 15.7891C2.19179 15.1528 3.19232 15.1657 3.19232 15.1657C4.22191 15.2382 4.76388 16.2224 4.76388 16.2224C5.67856 17.7899 7.16264 17.3368 7.7478 17.0748C7.83989 16.4122 8.10544 15.9596 8.3987 15.7037C6.12137 15.4448 3.72749 14.5654 3.72749 10.6367C3.72749 9.51742 4.12792 8.6026 4.78371 7.88474C4.67735 7.62639 4.32637 6.58348 4.88327 5.17125C4.88327 5.17125 5.74416 4.89552 7.70311 6.22217C8.52122 5.99506 9.39827 5.88124 10.2696 5.87716C11.141 5.88124 12.0189 5.99506 12.8382 6.22217C14.7952 4.89565 15.655 5.17112 15.655 5.17112C16.213 6.58321 15.8622 7.62612 15.7555 7.88433C16.413 8.60233 16.8107 9.51701 16.8107 10.6363C16.8107 14.5747 14.4122 15.4415 12.1291 15.6954C12.4968 16.0138 12.8246 16.6377 12.8246 17.5943C12.8246 18.9662 12.8129 20.0705 12.8129 20.408C12.8129 20.6811 12.9972 21.0005 13.5169 20.9C17.5891 19.5428 20.5231 15.7008 20.5231 11.1722C20.5231 5.50934 15.9319 0.918945 10.2698 0.918945Z" fill="#FEFEFE"/>
<path id="Vector_2" d="M3.90067 15.6396C3.87799 15.6906 3.79785 15.7061 3.72491 15.6708C3.6502 15.6374 3.60877 15.5678 3.63281 15.5168C3.65495 15.4645 3.73509 15.4499 3.80939 15.4849C3.88383 15.5184 3.92621 15.5885 3.90067 15.6396ZM4.31483 16.103C4.26593 16.1484 4.17016 16.1275 4.10564 16.0558C4.03827 15.9842 4.02591 15.8884 4.07549 15.8425C4.12575 15.7973 4.21866 15.8185 4.28562 15.89C4.35286 15.9623 4.36603 16.0571 4.31483 16.103ZM4.71906 16.6939C4.65617 16.7378 4.55335 16.6969 4.48978 16.6056C4.42689 16.5143 4.42689 16.405 4.49114 16.3611C4.55498 16.3174 4.65617 16.357 4.72069 16.4472C4.78317 16.54 4.78318 16.6492 4.71906 16.6939ZM5.27421 17.2645C5.21797 17.3265 5.09831 17.3098 5.01069 17.2251C4.92104 17.1426 4.89605 17.0252 4.95229 16.9633C5.00934 16.9012 5.12968 16.9184 5.21797 17.0026C5.30694 17.085 5.33397 17.2031 5.27421 17.2645ZM6.03826 17.5956C6.01327 17.6757 5.89836 17.7124 5.78208 17.678C5.66595 17.643 5.59002 17.549 5.61365 17.4679C5.63756 17.387 5.75356 17.349 5.87038 17.3856C5.98624 17.4205 6.06244 17.5139 6.03826 17.5956ZM6.87703 17.6567C6.87974 17.7413 6.7814 17.8115 6.6597 17.8129C6.5369 17.8156 6.43761 17.7471 6.43625 17.664C6.43625 17.5784 6.53269 17.5092 6.65494 17.5071C6.77719 17.5044 6.87703 17.5727 6.87703 17.6565M7.65806 17.5242C7.6726 17.6066 7.58797 17.6913 7.46681 17.7139C7.34782 17.7359 7.23766 17.6848 7.22259 17.6032C7.20764 17.5185 7.2939 17.4339 7.41275 17.412C7.53405 17.3909 7.64258 17.4404 7.65806 17.5242Z" fill="#FEFEFE"/>
</g>
</svg>
