<svg width="56" height="55" viewBox="0 0 56 55" fill="none" xmlns="http://www.w3.org/2000/svg">
<path fill-rule="evenodd" clip-rule="evenodd" d="M27.7297 0.549316C12.4117 0.549316 -0.00878906 12.968 -0.00878906 28.2878C-0.00878906 40.5429 7.93959 50.9405 18.96 54.6082C20.3468 54.8654 20.8562 54.0066 20.8562 53.2743C20.8562 52.6128 20.8304 50.4275 20.8179 48.1095C13.1011 49.7877 11.4732 44.8372 11.4732 44.8372C10.2109 41.6314 8.39305 40.7785 8.39305 40.7785C5.87588 39.0569 8.58266 39.0918 8.58266 39.0918C11.3681 39.288 12.8343 41.9507 12.8343 41.9507C15.3088 46.1913 19.3238 44.9654 20.9069 44.2566C21.156 42.464 21.8744 41.2396 22.6678 40.5473C16.5068 39.8469 10.0305 37.4679 10.0305 26.8392C10.0305 23.8113 11.1138 21.3364 12.8879 19.3943C12.6002 18.6954 11.6507 15.8739 13.1573 12.0533C13.1573 12.0533 15.4863 11.3074 20.786 14.8964C22.9992 14.282 25.372 13.9741 27.7293 13.9631C30.0866 13.9741 32.4616 14.282 34.6782 14.8964C39.9727 11.3077 42.2988 12.053 42.2988 12.053C43.8083 15.8732 42.8592 18.6946 42.5707 19.3932C44.3493 21.3356 45.4252 23.8102 45.4252 26.8381C45.4252 37.4929 38.9364 39.8381 32.76 40.5249C33.7547 41.3863 34.6414 43.0741 34.6414 45.6621C34.6414 49.3736 34.6098 52.3611 34.6098 53.2743C34.6098 54.0129 35.1085 54.8772 36.5144 54.6053C47.5312 50.9335 55.4685 40.5396 55.4685 28.2882C55.4685 12.968 43.0477 0.549316 27.7297 0.549316Z" fill="#FEFEFE"/>
<path d="M10.499 40.3739C10.4376 40.512 10.2208 40.5539 10.0235 40.4584C9.82139 40.368 9.70931 40.1798 9.77435 40.0417C9.83425 39.9002 10.0511 39.8609 10.2521 39.9553C10.4534 40.0461 10.5681 40.2357 10.499 40.3739ZM11.6194 41.6277C11.4872 41.7504 11.2281 41.6938 11.0535 41.4998C10.8713 41.3061 10.8378 41.0471 10.972 40.9229C11.1079 40.8005 11.3593 40.8578 11.5404 41.0515C11.7223 41.247 11.758 41.5035 11.6194 41.6277ZM12.713 43.2262C12.5429 43.3449 12.2647 43.2343 12.0928 42.9873C11.9226 42.7404 11.9226 42.4446 12.0964 42.3259C12.2691 42.2076 12.5429 42.3149 12.7175 42.5589C12.8865 42.8098 12.8865 43.1053 12.713 43.2262ZM14.2149 44.77C14.0628 44.9375 13.739 44.8923 13.502 44.6634C13.2595 44.44 13.1919 44.1225 13.344 43.9549C13.4983 43.787 13.8239 43.8336 14.0628 44.0615C14.3035 44.2842 14.3766 44.6039 14.2149 44.77ZM16.282 45.6655C16.2143 45.8823 15.9035 45.9815 15.5889 45.8886C15.2747 45.7937 15.0693 45.5394 15.1332 45.3201C15.1979 45.1014 15.5117 44.9985 15.8278 45.0974C16.1412 45.1918 16.3474 45.4446 16.282 45.6655ZM18.5511 45.8309C18.5585 46.0598 18.2924 46.2498 17.9632 46.2535C17.631 46.2608 17.3623 46.0756 17.3587 45.8507C17.3587 45.6192 17.6196 45.4318 17.9503 45.4263C18.281 45.4189 18.5511 45.6038 18.5511 45.8305M20.6641 45.4726C20.7034 45.6953 20.4745 45.9246 20.1467 45.9856C19.8248 46.0451 19.5268 45.9069 19.486 45.6861C19.4456 45.4571 19.6789 45.2282 20.0004 45.169C20.3286 45.1117 20.6222 45.2458 20.6641 45.4726Z" fill="#FEFEFE"/>
</svg>
