<svg width="258" height="47" viewBox="0 0 258 47" fill="none" xmlns="http://www.w3.org/2000/svg">
<path d="M0.64 37V3.976H11.488V37H0.64ZM16.3375 37V12.952H26.3215V18.184C27.0255 16.392 28.0335 15.016 29.3455 14.056C30.6895 13.096 32.3695 12.616 34.3855 12.616C36.3695 12.616 38.0495 13.112 39.4255 14.104C40.8335 15.064 41.8255 16.312 42.4015 17.848C43.4895 16.216 44.7695 14.936 46.2415 14.008C47.7455 13.08 49.5535 12.616 51.6655 12.616C54.6415 12.616 56.9455 13.704 58.5775 15.88C60.2095 18.024 61.0255 21.064 61.0255 25V37H50.8975V24.472C50.8975 21.624 49.8895 20.2 47.8735 20.2C46.6255 20.2 45.6175 20.712 44.8495 21.736C44.1135 22.728 43.7455 24.072 43.7455 25.768V37H33.6175V24.472C33.6175 22.968 33.3615 21.88 32.8495 21.208C32.3375 20.536 31.5855 20.2 30.5935 20.2C29.3455 20.2 28.3375 20.696 27.5695 21.688C26.8335 22.648 26.4655 24.008 26.4655 25.768V37H16.3375ZM76.2111 37.384C74.0031 37.384 72.0031 36.856 70.2111 35.8C68.4191 34.712 66.9951 33.224 65.9391 31.336C64.9151 29.448 64.4031 27.288 64.4031 24.856C64.4031 22.424 64.9151 20.296 65.9391 18.472C66.9951 16.648 68.4191 15.224 70.2111 14.2C72.0031 13.144 74.0031 12.616 76.2111 12.616C77.7791 12.616 79.2991 13.048 80.7711 13.912C82.2431 14.776 83.3791 16.2 84.1791 18.184V12.952H94.1631V37H84.0831V32.536C83.3151 34.104 82.2911 35.304 81.0111 36.136C79.7311 36.968 78.1311 37.384 76.2111 37.384ZM79.3311 29.8C80.6431 29.8 81.7631 29.336 82.6911 28.408C83.6191 27.448 84.0831 26.28 84.0831 24.904C84.0831 23.528 83.6191 22.408 82.6911 21.544C81.7631 20.648 80.6431 20.2 79.3311 20.2C77.9551 20.2 76.8031 20.664 75.8751 21.592C74.9471 22.52 74.4831 23.656 74.4831 25C74.4831 26.344 74.9471 27.48 75.8751 28.408C76.8031 29.336 77.9551 29.8 79.3311 29.8ZM113.282 46.36C112.066 46.36 110.93 46.28 109.874 46.12C108.818 45.96 107.986 45.768 107.378 45.544L108.146 38.584C108.722 38.712 109.346 38.808 110.018 38.872C110.69 38.968 111.346 39.016 111.986 39.016C114.13 39.016 115.666 38.568 116.594 37.672C117.554 36.776 118.034 35.4 118.034 33.544V31.288C117.138 33.048 116.034 34.344 114.722 35.176C113.41 36.008 111.762 36.424 109.778 36.424C107.506 36.424 105.458 35.912 103.634 34.888C101.81 33.832 100.37 32.408 99.3141 30.616C98.2901 28.792 97.7781 26.712 97.7781 24.376C97.7781 22.04 98.2901 19.992 99.3141 18.232C100.37 16.472 101.81 15.096 103.634 14.104C105.458 13.112 107.506 12.616 109.778 12.616C111.378 12.616 112.914 13.048 114.386 13.912C115.858 14.744 116.978 16.104 117.746 17.992V12.952H127.826V31.384C127.826 36.504 126.562 40.28 124.034 42.712C121.506 45.144 117.922 46.36 113.282 46.36ZM112.898 28.84C114.274 28.84 115.426 28.408 116.354 27.544C117.282 26.68 117.746 25.64 117.746 24.424C117.746 23.208 117.282 22.2 116.354 21.4C115.426 20.6 114.274 20.2 112.898 20.2C111.426 20.2 110.21 20.616 109.25 21.448C108.322 22.28 107.858 23.304 107.858 24.52C107.858 25.704 108.322 26.728 109.25 27.592C110.21 28.424 111.426 28.84 112.898 28.84ZM141.514 37.384C139.37 37.384 137.626 37 136.282 36.232C134.97 35.464 134.01 34.424 133.402 33.112C132.794 31.8 132.49 30.328 132.49 28.696V12.952H142.618V27.304C142.618 28.04 142.826 28.616 143.242 29.032C143.69 29.416 144.218 29.608 144.826 29.608C145.466 29.608 146.122 29.416 146.794 29.032L147.322 35.704C146.618 36.248 145.706 36.664 144.586 36.952C143.466 37.24 142.442 37.384 141.514 37.384ZM137.578 10.312C136.106 10.312 134.842 9.848 133.786 8.92C132.73 7.96 132.202 6.792 132.202 5.416C132.202 4.456 132.458 3.624 132.97 2.92C133.482 2.184 134.154 1.608 134.986 1.192C135.818 0.775997 136.682 0.567997 137.578 0.567997C138.57 0.567997 139.466 0.791997 140.266 1.24C141.098 1.688 141.754 2.28 142.234 3.016C142.746 3.752 143.002 4.552 143.002 5.416C143.002 6.376 142.73 7.224 142.186 7.96C141.674 8.696 141.002 9.272 140.17 9.688C139.37 10.104 138.506 10.312 137.578 10.312ZM149.791 37V12.952H159.775V18.184C160.511 16.392 161.599 15.016 163.039 14.056C164.511 13.096 166.255 12.616 168.271 12.616C171.407 12.616 173.839 13.704 175.567 15.88C177.295 18.024 178.159 21.064 178.159 25V37H168.031V24.472C168.031 21.624 166.879 20.2 164.575 20.2C163.199 20.2 162.079 20.712 161.215 21.736C160.351 22.728 159.919 24.072 159.919 25.768V37H149.791ZM195.229 37.384C191.165 37.384 187.981 36.36 185.677 34.312C183.405 32.232 182.269 29.368 182.269 25.72V12.952H192.157V26.152C192.157 27.432 192.429 28.376 192.973 28.984C193.549 29.592 194.317 29.896 195.277 29.896C196.205 29.896 196.925 29.592 197.437 28.984C197.981 28.376 198.253 27.432 198.253 26.152V12.952H207.949V25.72C207.949 29.4 206.829 32.264 204.589 34.312C202.381 36.36 199.261 37.384 195.229 37.384ZM212.509 37V12.952H222.493V18.184C223.197 16.392 224.205 15.016 225.517 14.056C226.861 13.096 228.541 12.616 230.557 12.616C232.541 12.616 234.221 13.112 235.597 14.104C237.005 15.064 237.997 16.312 238.573 17.848C239.661 16.216 240.941 14.936 242.413 14.008C243.917 13.08 245.725 12.616 247.837 12.616C250.813 12.616 253.117 13.704 254.749 15.88C256.381 18.024 257.197 21.064 257.197 25V37H247.069V24.472C247.069 21.624 246.061 20.2 244.045 20.2C242.797 20.2 241.789 20.712 241.021 21.736C240.285 22.728 239.917 24.072 239.917 25.768V37H229.789V24.472C229.789 22.968 229.533 21.88 229.021 21.208C228.509 20.536 227.757 20.2 226.765 20.2C225.517 20.2 224.509 20.696 223.741 21.688C223.005 22.648 222.637 24.008 222.637 25.768V37H212.509Z" fill="white"/>
</svg>
