<svg width="50" height="50" viewBox="0 0 50 50" fill="none" xmlns="http://www.w3.org/2000/svg">
<path fill-rule="evenodd" clip-rule="evenodd" d="M40.363 6.85826C40.7469 6.76224 41.1492 6.7673 41.5306 6.87293C41.912 6.97856 42.2595 7.18116 42.5394 7.46101C42.8192 7.74086 43.0218 8.08841 43.1275 8.46981C43.2331 8.85122 43.2382 9.25348 43.1421 9.63742L40.8401 18.8458C40.3823 20.6774 39.4354 22.3502 38.1005 23.6853L28.5567 33.227V37.827C28.556 38.6555 28.2263 39.4498 27.6401 40.0353L24.038 43.6395C23.7489 43.9286 23.396 44.1458 23.0077 44.2737C22.6194 44.4015 22.2064 44.4364 21.8022 44.3757C21.3979 44.3149 21.0135 44.16 20.68 43.9236C20.3464 43.6872 20.073 43.3758 19.8817 43.0145C19.0324 41.4042 18.0991 39.8396 17.0859 38.327C16.8762 38.8531 16.5615 39.3308 16.1609 39.7312C14.5359 41.3583 7.69006 43.0458 7.3234 42.677C6.95465 42.3103 8.64215 35.4666 10.2692 33.8395C10.6817 33.4249 11.1609 33.1166 11.6713 32.9145C10.1594 31.9013 8.59548 30.9681 6.9859 30.1187C6.62458 29.9274 6.31319 29.654 6.07678 29.3204C5.84037 28.9869 5.68554 28.6025 5.62475 28.1982C5.56396 27.794 5.59889 27.381 5.72675 26.9927C5.8546 26.6044 6.07181 26.2515 6.3609 25.9624L9.96506 22.3583C10.5506 21.772 11.3449 21.4423 12.1734 21.4416H16.7713L26.313 11.8999C27.6487 10.5647 29.3222 9.61773 31.1546 9.16034L40.363 6.85826ZM36.2026 19.3458C35.5808 18.1712 34.7842 17.0978 33.8401 16.1624C32.9042 15.2174 31.8301 14.4201 30.6546 13.7978C30.1425 14.0808 29.6726 14.4342 29.2588 14.8478L27.2067 16.902C28.0359 17.1103 29.4359 17.652 30.8942 19.1083C32.3505 20.5645 32.8901 21.9624 33.0984 22.7937L35.1526 20.7395C35.5692 20.3215 35.9192 19.8562 36.2026 19.3437V19.3458Z" fill="url(#paint0_linear_374_30)"/>
<defs>
<linearGradient id="paint0_linear_374_30" x1="32.5" y1="7" x2="9" y2="44" gradientUnits="userSpaceOnUse">
<stop stop-color="#FF8000"/>
<stop offset="0.5" stop-color="#00F2FF"/>
<stop offset="1" stop-color="#4800FF"/>
</linearGradient>
</defs>
</svg>
