<svg width="51" height="50" viewBox="0 0 51 50" fill="none" xmlns="http://www.w3.org/2000/svg">
<g clip-path="url(#clip0_374_36)">
<path d="M23.8333 0V6.66667H27.1667V0H23.8333ZM11.68 12.1533L6.68 7.15333L4.32 9.51333L9.32 14.5133L11.68 12.1533ZM41.68 14.5133L46.68 9.51333L44.32 7.15333L39.32 12.1533L41.68 14.5133ZM25.5 10C22.3227 10.0002 19.252 11.1464 16.8517 13.2283C14.4515 15.3101 12.8827 18.1879 12.4333 21.3333L12.4 21.5667C12.1464 23.3191 12.2489 25.1047 12.7014 26.8167C13.1539 28.5286 13.947 30.1317 15.0333 31.53C16.31 33.18 17.1667 34.7567 17.1667 36.3367V41.6667C17.1667 42.1087 17.3423 42.5326 17.6548 42.8452C17.9674 43.1577 18.3913 43.3333 18.8333 43.3333H32.1667C32.6087 43.3333 33.0326 43.1577 33.3452 42.8452C33.6577 42.5326 33.8333 42.1087 33.8333 41.6667V36.3367C33.8333 34.7567 34.69 33.18 35.9667 31.53C38.0667 28.8167 39.1267 25.28 38.6 21.5633L38.5667 21.33C38.1166 18.1852 36.5475 15.3082 34.1473 13.227C31.7471 11.1458 28.6768 10 25.5 10ZM0.5 26.6667H7.16667V23.3333H0.5V26.6667ZM43.8333 26.6667H50.5V23.3333H43.8333V26.6667ZM20.5 50H30.5V46.6667H20.5V50Z" fill="url(#paint0_linear_374_36)"/>
</g>
<defs>
<linearGradient id="paint0_linear_374_36" x1="23" y1="11" x2="32" y2="52" gradientUnits="userSpaceOnUse">
<stop stop-color="#FF8000"/>
<stop offset="0.5" stop-color="#00F2FF"/>
<stop offset="1" stop-color="#4800FF"/>
</linearGradient>
<clipPath id="clip0_374_36">
<rect width="50" height="50" fill="white" transform="translate(0.5)"/>
</clipPath>
</defs>
</svg>
