<svg width="58" height="58" viewBox="0 0 58 58" fill="none" xmlns="http://www.w3.org/2000/svg">
<path d="M7.1377 27.0709C7.1377 18.0993 7.1377 13.6123 9.92601 10.8264C12.7119 8.03809 17.1989 8.03809 26.1706 8.03809H30.9288C39.9004 8.03809 44.3874 8.03809 47.1733 10.8264C49.9616 13.6123 49.9616 18.0993 49.9616 27.0709V31.8292C49.9616 40.8008 49.9616 45.2878 47.1733 48.0737C44.3874 50.862 39.9004 50.862 30.9288 50.862H26.1706C17.1989 50.862 12.7119 50.862 9.92601 48.0737C7.1377 45.2878 7.1377 40.8008 7.1377 31.8292V27.0709Z" stroke="#F1F1F1" stroke-width="4.75821"/>
<path d="M39.2552 22.3121C41.2261 22.3121 42.8238 20.7144 42.8238 18.7435C42.8238 16.7725 41.2261 15.1748 39.2552 15.1748C37.2843 15.1748 35.6865 16.7725 35.6865 18.7435C35.6865 20.7144 37.2843 22.3121 39.2552 22.3121Z" fill="#F1F1F1"/>
<path d="M28.5504 36.5871C32.4922 36.5871 35.6877 33.3917 35.6877 29.4498C35.6877 25.508 32.4922 22.3125 28.5504 22.3125C24.6086 22.3125 21.4131 25.508 21.4131 29.4498C21.4131 33.3917 24.6086 36.5871 28.5504 36.5871Z" stroke="#F1F1F1" stroke-width="4.75821"/>
</svg>
