<svg width="60" height="60" viewBox="0 0 60 60" fill="none" xmlns="http://www.w3.org/2000/svg">
<g clip-path="url(#clip0_166_126)">
<path d="M0.873047 0.582275H59.679V59.3882H0.873047V0.582275Z" fill="white"/>
<path d="M16.3351 49.7245L20.8353 47.001C21.7035 48.5404 22.4932 49.8428 24.3876 49.8428C26.2035 49.8428 27.3484 49.1324 27.3484 46.3695V27.5796H32.8746V46.4476C32.8746 52.1714 29.5195 54.7767 24.6245 54.7767C20.2037 54.7767 17.6376 52.4871 16.335 49.724" fill="black"/>
<path d="M35.877 49.1326L40.3766 46.5273C41.5612 48.4618 43.1007 49.8827 45.8242 49.8827C48.114 49.8827 49.5742 48.7379 49.5742 47.1589C49.5742 45.2641 48.0742 44.593 45.5478 43.4881L44.1666 42.8956C40.1795 41.1985 37.5346 39.0669 37.5346 34.5668C37.5346 30.422 40.6925 27.2639 45.627 27.2639C49.1402 27.2639 51.6665 28.4877 53.4821 31.6852L49.1794 34.4482C48.232 32.751 47.206 32.08 45.6271 32.08C44.0086 32.08 42.9822 33.1063 42.9822 34.4482C42.9822 36.1062 44.0086 36.7774 46.3768 37.8038L47.7583 38.3959C52.4558 40.4092 55.1006 42.4616 55.1006 47.0799C55.1006 52.054 51.1927 54.7774 45.9428 54.7774C40.8111 54.7774 37.4951 52.3302 35.877 49.1326Z" fill="black"/>
</g>
<defs>
<clipPath id="clip0_166_126">
<rect width="58.8059" height="58.8059" fill="white" transform="translate(0.873047 0.582031)"/>
</clipPath>
</defs>
</svg>
