<svg width="21" height="20" viewBox="0 0 21 20" fill="none" xmlns="http://www.w3.org/2000/svg">
<g id="jwt-icon logo" clip-path="url(#clip0_375_281)">
<g id="Group">
<path id="Vector" d="M12.0281 5.37519L12.0081 0H8.99902L9.01908 5.37519L10.5236 7.43335L12.0281 5.37519Z" fill="white"/>
<path id="Vector_2" d="M9.01953 14.587V19.9821H12.0286V14.587L10.524 12.5288L9.01953 14.587Z" fill="white"/>
<path id="Vector_3" d="M12.0283 14.587L15.1978 18.9432L17.6251 17.1847L14.4556 12.8286L12.0283 12.0493V14.587Z" fill="#00F2E6"/>
<path id="Vector_4" d="M9.01919 5.37515L5.82963 1.01904L3.40234 2.77747L6.57185 7.13357L9.01919 7.91288V5.37515Z" fill="#00F2E6"/>
<path id="Vector_5" d="M6.57185 7.13361L1.43644 5.4751L0.513672 8.31256L5.64908 9.99106L8.07636 9.19177L6.57185 7.13361Z" fill="#00B9F1"/>
<path id="Vector_6" d="M12.9512 10.7705L14.4557 12.8287L19.5911 14.4872L20.5139 11.6497L15.3785 9.99121L12.9512 10.7705Z" fill="#00B9F1"/>
<path id="Vector_7" d="M15.3785 9.99106L20.5139 8.31256L19.5911 5.4751L14.4557 7.13361L12.9512 9.19177L15.3785 9.99106Z" fill="#D63AFF"/>
<path id="Vector_8" d="M5.64908 9.99121L0.513672 11.6497L1.43644 14.4872L6.57185 12.8287L8.07636 10.7705L5.64908 9.99121Z" fill="#D63AFF"/>
<path id="Vector_9" d="M6.57185 12.8286L3.40234 17.1847L5.82963 18.9432L9.01919 14.587V12.0493L6.57185 12.8286Z" fill="#FB015B"/>
<path id="Vector_10" d="M14.4556 7.13357L17.6251 2.77747L15.1978 1.01904L12.0283 5.37515V7.91288L14.4556 7.13357Z" fill="#FB015B"/>
</g>
</g>
<defs>
<clipPath id="clip0_375_281">
<rect width="20" height="20" fill="white" transform="translate(0.513672)"/>
</clipPath>
</defs>
</svg>
