<svg width="43" height="43" viewBox="0 0 43 43" fill="none" xmlns="http://www.w3.org/2000/svg">
<path d="M37.6944 0.303711C38.9408 0.303711 40.1361 0.798832 41.0174 1.68015C41.8987 2.56148 42.3939 3.7568 42.3939 5.00318V37.8995C42.3939 39.1459 41.8987 40.3412 41.0174 41.2225C40.1361 42.1038 38.9408 42.5989 37.6944 42.5989H4.7981C3.55173 42.5989 2.3564 42.1038 1.47508 41.2225C0.593754 40.3412 0.0986328 39.1459 0.0986328 37.8995V5.00318C0.0986328 3.7568 0.593754 2.56148 1.47508 1.68015C2.3564 0.798832 3.55173 0.303711 4.7981 0.303711H37.6944ZM36.5195 36.7246V24.271C36.5195 22.2394 35.7125 20.291 34.2759 18.8545C32.8394 17.4179 30.891 16.6109 28.8594 16.6109C26.8621 16.6109 24.5359 17.8327 23.408 19.6655V17.0573H16.8522V36.7246H23.408V25.1404C23.408 23.3311 24.8648 21.8508 26.6741 21.8508C27.5466 21.8508 28.3833 22.1974 29.0003 22.8143C29.6172 23.4312 29.9638 24.2679 29.9638 25.1404V36.7246H36.5195ZM9.21561 13.3682C10.2626 13.3682 11.2666 12.9523 12.0069 12.212C12.7473 11.4717 13.1632 10.4676 13.1632 9.42068C13.1632 7.23543 11.4009 5.44963 9.21561 5.44963C8.16242 5.44963 7.15236 5.86801 6.40765 6.61273C5.66293 7.35744 5.24455 8.3675 5.24455 9.42068C5.24455 11.6059 7.03035 13.3682 9.21561 13.3682ZM12.4817 36.7246V17.0573H5.97297V36.7246H12.4817Z" fill="#F1F1F1"/>
</svg>
