<svg width="37" height="36" viewBox="0 0 37 36" fill="none" xmlns="http://www.w3.org/2000/svg">
<path d="M28.7825 4.49414C29.577 4.49414 30.339 4.80975 30.9007 5.37154C31.4625 5.93333 31.7781 6.69529 31.7781 7.48978V28.4593C31.7781 29.2538 31.4625 30.0157 30.9007 30.5775C30.339 31.1393 29.577 31.4549 28.7825 31.4549H7.81302C7.01853 31.4549 6.25658 31.1393 5.69479 30.5775C5.13299 30.0157 4.81738 29.2538 4.81738 28.4593V7.48978C4.81738 6.69529 5.13299 5.93333 5.69479 5.37154C6.25658 4.80975 7.01853 4.49414 7.81302 4.49414H28.7825ZM28.0336 27.7104V19.7719C28.0336 18.4769 27.5191 17.2349 26.6034 16.3192C25.6877 15.4035 24.4457 14.889 23.1507 14.889C21.8776 14.889 20.3947 15.6679 19.6758 16.8362V15.1736H15.4968V27.7104H19.6758V20.3261C19.6758 19.1728 20.6044 18.2292 21.7577 18.2292C22.3139 18.2292 22.8472 18.4501 23.2405 18.8433C23.6338 19.2366 23.8547 19.77 23.8547 20.3261V27.7104H28.0336ZM10.6289 12.822C11.2963 12.822 11.9363 12.5569 12.4082 12.085C12.8802 11.6131 13.1453 10.9731 13.1453 10.3057C13.1453 8.91271 12.0219 7.77437 10.6289 7.77437C9.95758 7.77437 9.31373 8.04106 8.83901 8.51577C8.3643 8.99049 8.09761 9.63434 8.09761 10.3057C8.09761 11.6987 9.23595 12.822 10.6289 12.822ZM12.7109 27.7104V15.1736H8.56193V27.7104H12.7109Z" fill="black"/>
</svg>
