<svg width="24" height="24" viewBox="0 0 24 24" fill="none" xmlns="http://www.w3.org/2000/svg">
<g clip-path="url(#clip0_320_258)">
<path d="M24 5.4566V19.3656C24 20.2696 23.268 21.0016 22.364 21.0016H18.545V11.7296L12 16.6396L5.455 11.7296V21.0026H1.636C1.42107 21.0026 1.20825 20.9603 1.0097 20.878C0.811145 20.7957 0.63075 20.6751 0.47882 20.5231C0.32689 20.3711 0.206404 20.1906 0.124246 19.992C0.0420884 19.7934 -0.000131068 19.5805 3.05652e-07 19.3656V5.4566C3.05652e-07 3.4336 2.309 2.2786 3.927 3.4926L5.455 4.6396L12 9.5476L18.545 4.6376L20.073 3.4926C21.69 2.2796 24 3.4336 24 5.4566Z" fill="white"/>
</g>
<defs>
<clipPath id="clip0_320_258">
<rect width="24" height="24" fill="white"/>
</clipPath>
</defs>
</svg>
