<svg width="51" height="29" viewBox="0 0 51 29" fill="none" xmlns="http://www.w3.org/2000/svg">
<path d="M28.849 14.7646C28.849 22.5293 22.5946 28.8242 14.884 28.8242C7.17114 28.8242 0.918945 22.5315 0.918945 14.7646C0.918945 7.00004 7.17114 0.705078 14.884 0.705078C22.5946 0.705078 28.849 7.00004 28.849 14.7646ZM44.1645 14.7646C44.1645 22.0746 41.0361 27.9982 37.1831 27.9982C33.3255 27.9982 30.1994 22.0724 30.1994 14.7646C30.1994 7.45691 33.3278 1.53105 37.1831 1.53105C41.0384 1.53105 44.1645 7.45691 44.1645 14.7646ZM50.4302 14.7646C50.4302 21.3139 49.3296 26.6231 47.9747 26.6231C46.6176 26.6231 45.5193 21.3117 45.5193 14.7646C45.5193 8.21537 46.6176 2.90618 47.9747 2.90618C49.3319 2.90618 50.4324 8.21762 50.4324 14.7669" fill="#F1F1F1"/>
</svg>
