<svg width="67" height="68" viewBox="0 0 67 68" fill="none" xmlns="http://www.w3.org/2000/svg">
<path d="M39.1139 12.1897C36.3939 9.42713 34.0516 6.62142 33.5731 6.03872C33.5227 5.99556 33.4472 5.99556 33.397 6.03872C32.9182 6.62142 30.5763 9.42713 27.8562 12.1897C4.50991 37.6783 31.5332 54.8796 31.5332 54.8796L31.7599 55.0089C31.9612 57.6635 32.465 61.4837 32.465 61.4837H33.4722H34.4796C34.4796 61.4837 34.9836 57.6848 35.185 55.0089L35.4117 54.858C35.4366 54.858 62.4602 37.6783 39.1139 12.1897ZM33.4722 54.491C33.4722 54.491 32.2636 53.6062 31.936 53.1526V53.1096L33.397 25.3549C33.397 25.2685 33.5479 25.2685 33.5479 25.3549L35.0089 53.1096V53.1526C34.6813 53.6062 33.4722 54.491 33.4722 54.491Z" fill="#22C55E"/>
</svg>
