<svg width="25" height="25" viewBox="0 0 25 25" fill="none" xmlns="http://www.w3.org/2000/svg">
<g id="nextjs-icon logo" clip-path="url(#clip0_337_42)">
<g id="Group">
<g id="Mask group">
<mask id="mask0_337_42" style="mask-type:luminance" maskUnits="userSpaceOnUse" x="0" y="0" width="25" height="25">
<g id="Group_2">
<path id="Vector" d="M12.2568 24.0811C18.8843 24.0811 24.2568 18.7085 24.2568 12.0811C24.2568 5.45364 18.8843 0.0810547 12.2568 0.0810547C5.62942 0.0810547 0.256836 5.45364 0.256836 12.0811C0.256836 18.7085 5.62942 24.0811 12.2568 24.0811Z" fill="white"/>
</g>
</mask>
<g mask="url(#mask0_337_42)">
<g id="Group_3">
<path id="Vector_2" d="M12.2568 24.0811C18.8843 24.0811 24.2568 18.7085 24.2568 12.0811C24.2568 5.45364 18.8843 0.0810547 12.2568 0.0810547C5.62942 0.0810547 0.256836 5.45364 0.256836 12.0811C0.256836 18.7085 5.62942 24.0811 12.2568 24.0811Z" fill="black"/>
<path id="Vector_3" d="M20.1914 21.0839L9.47596 7.28125H7.45703V16.8772H9.07218V9.3324L18.9236 22.0606C19.3681 21.7631 19.7916 21.4366 20.1914 21.0839Z" fill="url(#paint0_linear_337_42)"/>
<path id="Vector_4" d="M17.1898 7.28125H15.5898V16.8812H17.1898V7.28125Z" fill="url(#paint1_linear_337_42)"/>
</g>
</g>
</g>
</g>
</g>
<defs>
<linearGradient id="paint0_linear_337_42" x1="715.904" y1="840.615" x2="1141.16" y2="1367.7" gradientUnits="userSpaceOnUse">
<stop stop-color="white"/>
<stop offset="1" stop-color="white" stop-opacity="0"/>
</linearGradient>
<linearGradient id="paint1_linear_337_42" x1="95.5898" y1="7.28125" x2="92.9099" y2="712.271" gradientUnits="userSpaceOnUse">
<stop stop-color="white"/>
<stop offset="1" stop-color="white" stop-opacity="0"/>
</linearGradient>
<clipPath id="clip0_337_42">
<rect width="24" height="24" fill="white" transform="translate(0.256836 0.0810547)"/>
</clipPath>
</defs>
</svg>
