<svg width="21" height="20" viewBox="0 0 21 20" fill="none" xmlns="http://www.w3.org/2000/svg">
<g id="nodejs logo">
<g clip-path="url(#clip0_375_94)">
<path id="Vector" d="M0.0136719 0H20.0137V20H0.0136719" fill="white"/>
<path id="Vector_2" d="M9.66211 10.9766C9.74023 10.9766 9.79232 11.0026 9.81836 11.0547C9.89648 11.1719 9.74023 12.1094 11.1465 12.2266C12.5527 12.3438 13.373 12.1484 13.4902 11.5234C13.6074 10.8984 13.334 10.7031 11.1465 10.4688C8.95898 10.2344 8.95898 9.17969 8.95898 8.82812C8.95898 8.47656 8.95898 6.91406 11.6152 6.91406C14.2715 6.91406 14.3496 8.47656 14.3887 8.75C14.4277 9.02344 14.3887 9.10156 14.2324 9.10156H13.5293C13.4251 9.10156 13.36 9.03646 13.334 8.90625C13.2168 8.4375 12.9824 7.92969 11.6152 7.92969C10.248 7.92969 10.0918 8.35938 10.0918 8.78906C10.0918 9.21875 10.5215 9.29688 11.9277 9.49219C13.334 9.6875 14.4668 9.84375 14.623 11.0156C14.7793 12.1875 13.998 13.2812 11.8496 13.2812C9.79232 13.2812 8.76367 12.5781 8.76367 11.1719C8.76367 11.0417 8.82878 10.9766 8.95898 10.9766M16.3027 5.66406C16.7194 5.89844 16.9277 6.27604 16.9277 6.79688V13.2812C16.9277 13.75 16.7454 14.1016 16.3809 14.3359L10.6777 17.6562C10.2611 17.8646 9.8444 17.8646 9.42773 17.6562L7.51367 16.5234C7.30534 16.4193 7.2793 16.3411 7.43555 16.2891C7.77409 16.1849 8.06055 16.0547 8.29492 15.8984C8.34701 15.8724 8.39909 15.8724 8.45117 15.8984L9.89648 16.7578C9.97461 16.8099 10.0527 16.8099 10.1309 16.7578L15.7949 13.4766C15.847 13.4505 15.873 13.3854 15.873 13.2812V6.71875C15.873 6.64062 15.847 6.58854 15.7949 6.5625L10.1309 3.28125C10.0527 3.22917 9.97461 3.22917 9.89648 3.28125L4.19336 6.5625C4.14128 6.58854 4.11523 6.64062 4.11523 6.71875V13.3203C4.11523 13.3984 4.14128 13.4505 4.19336 13.4766L5.75586 14.375C6.38086 14.7266 7.12305 14.4922 7.12305 13.7891V7.34375C7.12305 7.1875 7.20117 7.10938 7.35742 7.10938H7.98242C8.13867 7.10938 8.2168 7.1875 8.2168 7.34375V13.7891C8.2168 15.7031 6.45898 15.9375 5.20898 15.2344L3.68555 14.375C3.29492 14.1406 3.09961 13.7891 3.09961 13.3203V6.71875C3.09961 6.25 3.30794 5.89844 3.72461 5.66406L9.27148 2.46094C9.76628 2.14844 10.2611 2.14844 10.7559 2.46094" fill="#539E43"/>
</g>
</g>
<defs>
<clipPath id="clip0_375_94">
<rect x="0.0136719" width="20" height="20" rx="4" fill="white"/>
</clipPath>
</defs>
</svg>
