<svg width="21" height="20" viewBox="0 0 21 20" fill="none" xmlns="http://www.w3.org/2000/svg">
<g id="postgresql logo" clip-path="url(#clip0_375_321)">
<g id="Group">
<path id="Vector" d="M18.6635 12.2C16.4635 12.7 16.3135 11.9 16.3135 11.9C18.6635 8.4 19.6135 4.05 18.8135 3C16.5135 0 12.5135 1.5 12.4135 1.5H12.3135L10.8135 1.3C9.8135 1.3 9.1135 1.6 8.5135 2C8.5135 2 1.4135 -0.9 1.7635 5.7C1.7635 7.1 3.7635 16.3 6.1135 13.5C6.9135 12.5 7.7635 11.65 7.7635 11.65C8.1635 11.9 8.6635 12.05 9.1635 12V12.35C8.6635 13.05 8.7635 13.15 7.6635 13.35C6.4135 13.65 7.1635 14.1 7.5635 14.2C8.0635 14.35 9.5635 14.55 10.5635 13.3V13.45C11.0635 13.45 11.0635 14.45 11.0635 15.45C11.0635 16.45 11.0635 16.95 11.3135 17.45C11.5635 17.95 11.6635 18.95 13.3135 18.45C14.5635 18.05 15.3135 17.45 15.3135 16.1C15.3135 15.25 15.5635 15.35 15.5635 14.6L15.6635 14.2C15.8635 13 15.6635 12.7 16.5635 12.8H16.7635C17.2635 12.8 18.1135 12.8 18.5635 12.45C19.5635 11.95 20.2135 11.3 19.2135 11.45L18.6635 12.2Z" stroke="white" stroke-width="1.1" stroke-linecap="round" stroke-linejoin="round"/>
<path id="Vector_2" d="M10.5133 12.8497C10.4133 15.0497 10.5133 17.2497 10.7133 17.7497C10.9133 18.2497 11.3633 19.3497 12.9633 18.9997C13.9633 18.6997 14.4633 18.1497 14.9633 16.9997V13.1497M8.51329 1.99971C8.51329 1.99971 1.51329 -1.00029 1.86329 5.59971C1.86329 6.99971 3.86329 16.1997 6.16329 13.4497L7.76329 11.4497M12.5133 1.49971C12.2133 1.49971 16.3633 -0.100287 18.7633 2.99971C19.6133 3.99971 18.6133 8.39971 16.2633 11.8997" stroke="white" stroke-width="1.1" stroke-linecap="round" stroke-linejoin="round"/>
<path id="Vector_3" d="M16.3135 11.8998C16.3135 11.8998 16.4635 12.6498 18.6635 12.1498C19.6635 11.9498 19.0635 12.7498 18.0635 13.1498C17.5635 13.5498 15.5635 13.6498 15.5635 13.1498C15.5635 11.7998 16.5635 12.1498 16.5635 11.8998C16.5635 11.5998 16.0635 11.2998 16.0635 10.5498C15.8135 10.0498 12.4635 5.0498 17.0635 6.0498C17.0635 6.0498 15.8135 1.9498 11.5635 1.5498C7.06348 1.5498 7.06348 7.0498 7.06348 7.0498" stroke="white" stroke-width="1.1" stroke-linecap="round" stroke-linejoin="bevel"/>
<path id="Vector_4" d="M9.31356 12.3501C8.71356 13.0001 8.81356 13.1001 7.66356 13.3501C6.46356 13.6001 7.16356 14.0501 7.66356 14.1501C8.16356 14.3001 9.51356 14.5001 10.3636 13.3001C10.6636 12.9001 10.3636 12.3001 10.0136 12.1501C9.81356 12.1501 9.61356 12.0001 9.31356 12.3501Z" stroke="white" stroke-width="1.1" stroke-linecap="round" stroke-linejoin="round"/>
<path id="Vector_5" d="M9.26348 12.2993C9.26348 11.9493 9.36348 11.4493 9.56348 10.8993C10.0635 10.0993 11.0635 9.29932 10.0635 6.69932C10.0635 4.69932 7.06348 6.29932 7.06348 6.54932V9.54932C7.06348 11.3993 8.06348 12.5493 9.56348 12.5493" stroke="white" stroke-width="1.1" stroke-linecap="round" stroke-linejoin="round"/>
<path id="Vector_6" d="M8.51367 6.49941C8.51367 6.59941 8.76367 6.84941 9.01367 6.84941C9.21367 6.84941 9.41367 6.69941 9.41367 6.64941C9.41367 6.54941 9.26367 6.44941 9.01367 6.39941C8.81367 6.39941 8.61367 6.39941 8.51367 6.49941Z" fill="white" stroke="white" stroke-width="0.4"/>
<path id="Vector_7" d="M15.5139 6.3502C15.6139 6.3502 15.4139 6.6502 15.2139 6.7002C14.9639 6.7002 14.7139 6.5502 14.7139 6.4502C14.7139 5.9502 14.9139 5.9502 15.2139 5.9502H15.5639L15.5139 6.3502Z" fill="white" stroke="white" stroke-width="0.2"/>
<path id="Vector_8" d="M16.4131 5.7002C16.4131 6.4002 16.2631 6.9002 16.2131 7.7002C16.2131 8.7002 16.7131 9.9502 15.9131 11.2002" stroke="white" stroke-width="1.1" stroke-linecap="round" stroke-linejoin="round"/>
</g>
</g>
<defs>
<clipPath id="clip0_375_321">
<rect width="20" height="20" fill="white" transform="translate(0.513672)"/>
</clipPath>
</defs>
</svg>
