<svg width="23" height="20" viewBox="0 0 23 20" fill="none" xmlns="http://www.w3.org/2000/svg">
<g id="React logo" clip-path="url(#clip0_375_122)">
<path id="Vector" d="M10.285 7.16943L12.6316 11.3374L9.66895 11.2288L10.285 7.16943Z" fill="#F4A93F"/>
<path id="Vector_2" d="M11.4103 7.9668L13.1498 11.3373L9.59473 11.2287L11.4103 7.9668Z" fill="#F4A83E"/>
<path id="Vector_3" d="M11.0839 8.54492L12.6055 11.3375L9.63184 11.3073L11.0839 8.54492Z" fill="#E88634"/>
<path id="Vector_4" d="M12.6795 8.26074L13.1499 11.3375L9.55762 11.3003L12.6795 8.26074Z" fill="#F8CA51"/>
<path id="Vector_5" d="M11.4103 12.278L13.189 11.3001L9.55762 11.2656L11.4103 12.278Z" fill="#F8CA51"/>
<path id="Vector_6" d="M0.514648 9.91064C0.592249 12.4914 5.48624 14.521 11.5122 14.521V13.5239C6.66174 13.4992 1.57381 11.9844 1.4923 9.91064H0.514648Z" fill="#E88634"/>
<path id="Vector_7" d="M16.9538 0.413464C14.7231 -0.808399 10.5523 2.49846 7.53906 7.8194L8.38595 8.31794C10.832 4.04715 14.6628 0.311912 16.4649 1.27684L16.9538 0.413464Z" fill="#F9CB52"/>
<path id="Vector_8" d="M0.514648 9.91063C0.592249 7.32984 5.48624 5.30029 11.5122 5.30029V6.29737C6.66174 6.32204 1.57381 7.83697 1.4923 9.91063H0.514648Z" fill="#E88634"/>
<path id="Vector_9" d="M6.01894 0.191406C3.86566 1.55033 4.58888 6.88661 7.60187 12.2077L8.44876 11.709C6.04435 7.4138 4.78722 2.16351 6.50776 1.05491L6.01894 0.191406Z" fill="#F4A73E"/>
<path id="Vector_10" d="M6.01897 19.6842C3.8657 18.3253 4.58879 12.9889 7.60191 7.66797L8.4488 8.16651C6.04439 12.4618 4.78725 17.7121 6.50779 18.8209L6.01897 19.6842Z" fill="#F9CB52"/>
<path id="Vector_11" d="M5.8916 0.253802C8.12248 -0.968061 12.2933 2.33867 15.3064 7.65974L14.4594 8.15816C12.0133 3.88749 8.18248 0.152499 6.38043 1.11731L5.8916 0.253802Z" fill="#F4A73E"/>
<path id="Vector_12" d="M22.5113 9.91063C22.4337 7.32984 17.5394 5.30029 11.5137 5.30029V6.29737C16.364 6.32204 21.4521 7.83697 21.5336 9.91063H22.5113Z" fill="#E88634"/>
<path id="Vector_13" d="M5.9209 19.6919C5.93397 19.7 5.94705 19.7079 5.96025 19.7155C8.17744 21.0209 12.3911 17.7037 15.4283 12.3401L14.5859 11.8335C12.1205 16.1423 8.24355 19.9088 6.45909 18.8583C6.44101 18.8477 6.4232 18.8366 6.40569 18.825L5.9209 19.6919Z" fill="#F9CB52"/>
<path id="Vector_14" d="M17.0164 19.6221C14.7852 20.8432 10.6148 17.5365 7.60209 12.2159L7.57031 12.1598L8.40571 11.6416C10.8479 15.9407 14.7097 19.7236 16.524 18.7606L17.0164 19.6221Z" fill="#F4A73E"/>
<path id="Vector_15" d="M22.5113 9.78613C22.5119 9.80682 22.5122 9.82763 22.5122 9.84843C22.5122 12.4589 17.5879 14.5211 11.5137 14.5211V13.524C16.4034 13.4993 21.5346 11.9596 21.5346 9.86027C21.5346 9.83554 21.5339 9.81082 21.5324 9.78613H22.5113Z" fill="#E88634"/>
<path id="Vector_16" d="M16.8903 19.6835C19.0422 18.3235 18.3187 12.988 15.3063 7.66794L15.2527 7.57324L14.3945 8.0511L14.4003 8.06131C16.8385 12.3674 18.1301 17.6825 16.4106 18.8144L16.8903 19.6835Z" fill="#F4A73E"/>
<path id="Vector_17" d="M16.9484 0.351074C19.1015 1.71 18.3783 7.0464 15.3654 12.3673L14.5186 11.8688C16.9231 7.57347 18.18 2.32318 16.4596 1.21445L16.9484 0.351074Z" fill="#F9CB52"/>
</g>
<defs>
<clipPath id="clip0_375_122">
<rect width="22" height="20" fill="white" transform="translate(0.513672)"/>
</clipPath>
</defs>
</svg>
