<svg width="67" height="67" viewBox="0 0 67 67" fill="none" xmlns="http://www.w3.org/2000/svg">
<path d="M33.3738 38.7165C36.2463 38.7165 38.5748 36.3879 38.5748 33.5155C38.5748 30.643 36.2463 28.3145 33.3738 28.3145C30.5014 28.3145 28.1729 30.643 28.1729 33.5155C28.1729 36.3879 30.5014 38.7165 33.3738 38.7165Z" fill="#00D8FF"/>
<path d="M33.3736 45.4403C27.1223 45.5915 20.8867 44.7488 14.8997 42.9438C12.1341 42.0671 9.55459 40.686 7.29167 38.8704C6.42816 38.2501 5.70905 37.4504 5.18369 36.526C4.65833 35.6017 4.33915 34.5747 4.24805 33.5154C4.24805 30.0765 8.02605 26.7063 14.3546 24.501C20.5016 22.547 26.9242 21.6 33.3736 21.6967C39.737 21.6078 46.0735 22.5377 52.143 24.4511C54.8065 25.3002 57.2985 26.6146 59.5034 28.3331C60.3522 28.9245 61.0605 29.6952 61.5782 30.5908C62.0959 31.4863 62.4104 32.4848 62.4992 33.5154C62.4992 37.0895 58.276 40.7115 51.4731 42.9625C45.6021 44.7087 39.498 45.5444 33.3736 45.4403ZM33.3736 24.1848C27.2034 24.1023 21.0594 25.0026 15.1722 26.8519C9.34711 28.8844 6.7362 31.6638 6.7362 33.5092C6.7362 35.4398 9.54266 38.4751 15.7048 40.5825C21.4323 42.3006 27.3958 43.1004 33.3736 42.9521C39.2329 43.0569 45.0736 42.2641 50.693 40.6012C57.0902 38.4813 60.0027 35.4419 60.0027 33.5154C59.8978 32.8543 59.6569 32.2222 59.2952 31.6589C58.9335 31.0956 58.459 30.6135 57.9015 30.2429C55.9288 28.7183 53.7027 27.5535 51.3254 26.802C45.5191 24.979 39.4588 24.0955 33.3736 24.1848Z" fill="#00D8FF"/>
<path d="M21.557 59.4561C20.5865 59.4784 19.6275 59.2429 18.7776 58.7737C15.7985 57.0553 14.7666 52.0998 16.0169 45.5154C17.3955 39.214 19.7841 33.1771 23.0903 27.6385C26.1916 22.082 30.162 17.0574 34.8508 12.7553C36.917 10.8719 39.3005 9.36956 41.8909 8.31783C42.8278 7.87874 43.8498 7.65112 44.8846 7.65112C45.9193 7.65112 46.9413 7.87874 47.8783 8.31783C50.976 10.1028 52.0016 15.5701 50.5557 22.5873C49.1346 28.5467 46.808 34.253 43.6571 39.5072C40.665 44.9981 36.8196 49.9789 32.2649 54.2634C30.1237 56.2206 27.6387 57.7646 24.9356 58.8174C23.8534 59.2191 22.7112 59.435 21.557 59.4561ZM25.2456 28.8743C22.0919 34.1779 19.8026 39.9497 18.4635 45.973C17.313 52.0374 18.4177 55.6844 20.0238 56.6122C21.6881 57.5754 25.7282 56.6621 30.6338 52.3765C34.9819 48.2718 38.6522 43.504 41.5081 38.2506C44.5266 33.2275 46.7584 27.7719 48.1258 22.0734C49.4864 15.4682 48.311 11.4239 46.6425 10.4627C46.0172 10.2231 45.3489 10.1159 44.68 10.1477C44.0111 10.1796 43.356 10.3499 42.7563 10.6479C40.4506 11.5993 38.3307 12.9501 36.4943 14.6381C32.0145 18.7589 28.222 23.5691 25.2602 28.8867L25.2456 28.8743Z" fill="#00D8FF"/>
<path d="M45.1847 59.4831C42.3657 59.4831 38.7854 57.7771 35.0573 54.5712C30.2863 50.23 26.2488 45.1458 23.1012 39.5154C19.8365 34.053 17.4668 28.1035 16.082 21.8923C15.4814 19.1597 15.3701 16.3422 15.7533 13.5707C15.8419 12.5426 16.1549 11.5465 16.6704 10.6525C17.1858 9.75852 17.8912 8.98853 18.7366 8.39679C21.8301 6.60557 27.079 8.44672 32.436 13.2025C36.8893 17.4095 40.671 22.2745 43.6493 27.628C46.912 32.9629 49.3066 38.7821 50.7435 44.8683C51.37 47.7012 51.4666 50.6255 51.0285 53.4936C50.9243 54.5513 50.5926 55.5739 50.0561 56.4914C49.5196 57.4089 48.7911 58.1995 47.9204 58.809C47.0844 59.2724 46.1402 59.505 45.1847 59.4831ZM25.2545 38.263C28.274 43.6438 32.1308 48.5097 36.68 52.6781C41.3588 56.7037 45.0703 57.5691 46.6659 56.6308C48.3302 55.6635 49.5577 51.7149 48.2928 45.326C46.907 39.5153 44.6103 33.9605 41.4878 28.8679C38.6456 23.7442 35.036 19.0856 30.7842 15.0541C25.7413 10.5771 21.6512 9.57638 19.9848 10.5417C19.4654 10.9638 19.0392 11.4889 18.733 12.0841C18.4269 12.6792 18.2475 13.3313 18.2061 13.9993C17.8753 16.471 17.983 18.9817 18.5244 21.4159C19.8565 27.3558 22.1292 33.0446 25.2565 38.2672L25.2545 38.263Z" fill="#00D8FF"/>
</svg>
