<svg width="21" height="20" viewBox="0 0 21 20" fill="none" xmlns="http://www.w3.org/2000/svg">
<g id="Redis logo" clip-path="url(#clip0_375_307)">
<g id="Group">
<path id="Vector" d="M19.2308 14.6465C18.1635 15.2032 12.635 17.4762 11.458 18.0896C10.2809 18.7031 9.62717 18.6973 8.69719 18.253C7.76721 17.8086 1.88407 15.4323 0.823656 14.9254C0.293452 14.672 0.015625 14.4588 0.015625 14.2573V12.2357C0.015625 12.2357 7.67549 10.5682 8.91245 10.1244C10.1494 9.68061 10.5773 9.6647 11.6303 10.0502C12.6833 10.4356 18.9752 11.5708 20.0149 11.952V13.9456C20.0149 14.1455 19.7753 14.3697 19.2318 14.6476L19.2308 14.6465Z" fill="#A41E11"/>
<path id="Vector_2" d="M19.2303 12.6237C18.163 13.1804 12.6345 15.4534 11.4575 16.0669C10.2804 16.6803 9.6267 16.6745 8.69672 16.2302C7.76674 15.7859 1.88359 13.4095 0.823183 12.9026C-0.237226 12.3957 -0.258434 12.0474 0.782357 11.6397L8.91145 8.49237C10.1479 8.04911 10.5763 8.03268 11.6293 8.41814C12.6823 8.8036 18.1773 10.9907 19.2165 11.3777C20.2557 11.7648 20.2965 12.0723 19.2292 12.629L19.2303 12.6237Z" fill="#D82C20"/>
<path id="Vector_3" d="M19.2308 11.3496C18.1635 11.9063 12.635 14.1793 11.458 14.7928C10.2809 15.4062 9.62717 15.4004 8.69719 14.9561C7.76721 14.5118 1.88407 12.1354 0.823656 11.6285C0.293452 11.3751 0.015625 11.1619 0.015625 10.9605V8.93879C0.015625 8.93879 7.67549 7.2713 8.91245 6.82751C10.1494 6.38373 10.5773 6.36783 11.6303 6.75328C12.6833 7.13874 18.9752 8.27391 20.0149 8.65513V10.6487C20.0149 10.8486 19.7753 11.0729 19.2318 11.3507L19.2308 11.3496Z" fill="#A41E11"/>
<path id="Vector_4" d="M19.2303 9.32748C18.163 9.88419 12.6345 12.1572 11.4575 12.7706C10.2804 13.3841 9.6267 13.3782 8.69672 12.9339C7.76674 12.4896 1.88359 10.1132 0.823183 9.60636C-0.237226 9.09949 -0.258434 8.75115 0.782357 8.34342L8.91145 5.19665C10.1479 4.75287 10.5763 4.73697 11.6293 5.12243C12.6823 5.50788 18.1773 7.69551 19.2176 8.07566C20.2578 8.45582 20.2976 8.77023 19.2303 9.32695V9.32748Z" fill="#D82C20"/>
<path id="Vector_5" d="M19.2308 7.93121C18.1635 8.48793 12.635 10.7609 11.458 11.3749C10.2809 11.9889 9.62717 11.9825 8.69719 11.5382C7.76721 11.0939 1.88407 8.7175 0.823656 8.21063C0.293452 7.95719 0.015625 7.74405 0.015625 7.54257V5.51984C0.015625 5.51984 7.67549 3.85235 8.91245 3.40857C10.1494 2.96479 10.5773 2.94888 11.6303 3.33434C12.6833 3.7198 18.9752 4.85497 20.0149 5.23618V7.22975C20.0149 7.42964 19.7753 7.65392 19.2318 7.93174L19.2308 7.93121Z" fill="#A41E11"/>
<path id="Vector_6" d="M19.2303 5.90853C18.163 6.46525 12.6345 8.73823 11.4575 9.35168C10.2804 9.96513 9.6267 9.95929 8.69672 9.51498C7.76674 9.07067 1.88359 6.69429 0.823183 6.18742C-0.237226 5.68054 -0.258434 5.3322 0.782357 4.92447L8.91145 1.77771C10.1479 1.33393 10.5763 1.31802 11.6293 1.70348C12.6823 2.08894 18.1773 4.27656 19.2176 4.65672C20.2578 5.03688 20.2976 5.35129 19.2303 5.908V5.90853Z" fill="#D82C20"/>
<g id="Group_2">
<path id="Vector_7" d="M10.5139 5.07523L9.88725 4.03338L7.88626 3.85311L9.37931 3.31442L8.93129 2.4873L10.3289 3.03342L11.647 2.60183L11.2907 3.45652L12.6342 3.96021L10.9015 4.14048L10.5139 5.07523ZM7.17578 7.14939L11.8098 6.43786L10.41 8.49081L7.17578 7.14939Z" fill="white"/>
<path id="Vector_8" d="M5.92633 6.40087C7.29441 6.40087 8.40345 5.97097 8.40345 5.44067C8.40345 4.91037 7.29441 4.48047 5.92633 4.48047C4.55826 4.48047 3.44922 4.91037 3.44922 5.44067C3.44922 5.97097 4.55826 6.40087 5.92633 6.40087Z" fill="white"/>
</g>
<path id="Vector_9" d="M17.4259 5.30106L14.6847 6.38374L14.6826 4.2168L17.4259 5.30106Z" fill="#7A0C00"/>
<path id="Vector_10" d="M14.6844 6.38321L14.3875 6.49986L11.6484 5.41718L14.6828 4.2168L14.6844 6.38321Z" fill="#AD2115"/>
</g>
</g>
<defs>
<clipPath id="clip0_375_307">
<rect width="20" height="20" fill="white" transform="translate(0.0136719)"/>
</clipPath>
</defs>
</svg>
