<svg width="21" height="20" viewBox="0 0 21 20" fill="none" xmlns="http://www.w3.org/2000/svg">
<g id="Group">
<path id="Vector" d="M7.97801 0.315713C10.5684 -0.34862 13.4313 0.0385095 15.7158 1.44843C18.593 3.169 20.4713 6.42376 20.5191 9.7741C20.6242 13.1579 18.8606 16.513 16.0265 18.3531C12.8721 20.4751 8.50852 20.5564 5.28722 18.5395C2.00379 16.5799 0.0872572 12.6274 0.579533 8.83256C0.976221 4.82266 4.07326 1.28593 7.97801 0.315713Z" fill="#010101"/>
<path id="Vector_2" d="M7.58149 1.95506C12.4756 -0.0044868 18.4785 3.6135 18.9851 8.86126C19.7737 13.5833 15.8546 18.3818 11.0704 18.5204C6.52047 18.9744 2.12344 15.1175 1.9944 10.5484C1.65506 6.84914 4.09254 3.17858 7.58149 1.95506Z" fill="white"/>
<path id="Vector_3" d="M8.07324 9.49231C10.267 7.70005 12.4129 5.84565 14.6544 4.10596C13.4787 5.91256 12.2695 7.69527 11.0938 9.50187C10.0854 9.50665 9.07691 9.50665 8.07324 9.49231Z" fill="#010101"/>
<path id="Vector_4" d="M9.92782 10.4912C10.9411 10.4912 11.9495 10.4912 12.9579 10.5055C10.7499 12.2883 8.61349 14.157 6.36719 15.8919C7.54291 14.0853 8.7521 12.2978 9.92782 10.4912Z" fill="#010101"/>
</g>
</svg>
