<svg width="29" height="20" viewBox="0 0 29 20" fill="none" xmlns="http://www.w3.org/2000/svg">
<g id="Group">
<g id="Group_2">
<g id="Group_3">
<path id="Vector" d="M7.02355 17.9121H5.91018C5.87103 16.0659 5.76249 14.3299 5.58509 12.7037H5.57529L3.88011 17.9121H3.0324L1.34749 12.7037H1.33757C1.21254 14.2654 1.13389 16.0015 1.10109 17.9121H0.0859375C0.151539 15.5885 0.315714 13.4102 0.578462 11.3769H1.95842L3.56471 16.1788H3.57457L5.19071 11.3769H6.5111C6.80023 13.7583 6.97096 15.9372 7.02341 17.9121" fill="#00758F"/>
<path id="Vector_2" d="M11.8531 13.091C11.3997 15.5078 10.8016 17.2641 10.0593 18.3597C9.48095 19.2039 8.84735 19.626 8.15741 19.626C7.97348 19.626 7.74668 19.5716 7.47754 19.4634V18.8808C7.60902 18.8997 7.7633 18.9098 7.94073 18.9098C8.26261 18.9098 8.52201 18.8224 8.71936 18.648C8.9557 18.4355 9.07397 18.1966 9.07397 17.9318C9.07397 17.751 8.98172 17.38 8.79805 16.8187L7.57615 13.091H8.66992L9.5469 15.879C9.74391 16.5119 9.82608 16.9538 9.79321 17.2057C10.2729 15.9471 10.6079 14.5755 10.7986 13.091H11.853" fill="#00758F"/>
<path id="Vector_3" d="M16.7301 16.1007C16.7301 16.6549 16.5228 17.1099 16.1096 17.4659C15.6961 17.8204 15.1405 17.998 14.4449 17.998C13.7942 17.998 13.1636 17.7935 12.5527 17.3879L12.8385 16.8265C13.3642 17.0846 13.8399 17.2135 14.267 17.2135C14.6676 17.2135 14.9812 17.1259 15.208 16.9529C15.4344 16.7786 15.57 16.5355 15.57 16.2271C15.57 15.8391 15.2946 15.5074 14.7892 15.2291C14.3226 14.9776 13.3901 14.4524 13.3901 14.4524C12.8849 14.0903 12.6316 13.7019 12.6316 13.0618C12.6316 12.5324 12.8205 12.1045 13.1978 11.7789C13.5759 11.4527 14.0638 11.2896 14.6612 11.2896C15.2788 11.2896 15.8404 11.4515 16.3461 11.7741L16.0892 12.335C15.6564 12.1547 15.2297 12.0643 14.8089 12.0643C14.4675 12.0643 14.2044 12.1448 14.021 12.3068C13.8366 12.4674 13.7226 12.674 13.7226 12.9259C13.7226 13.313 14.004 13.6487 14.5237 13.9323C14.9961 14.184 15.9515 14.7193 15.9515 14.7193C16.4711 15.0807 16.7301 15.4661 16.7301 16.1007Z" fill="#F29111"/>
<path id="Vector_4" fill-rule="evenodd" clip-rule="evenodd" d="M18.7211 16.6052C18.4516 16.1793 18.3167 15.4957 18.3167 14.5531C18.3167 12.9075 18.826 12.0841 19.8442 12.0841C20.3766 12.0841 20.7673 12.2811 21.0171 12.6745C21.2862 13.1007 21.4212 13.7784 21.4212 14.7078C21.4212 16.3666 20.9119 17.1963 19.8937 17.1963C19.3615 17.1963 18.9706 16.9996 18.7211 16.6053M22.6826 18.0702L21.4598 17.4779C21.5687 17.3902 21.6721 17.2955 21.7657 17.186C22.2848 16.5864 22.5447 15.699 22.5447 14.5241C22.5447 12.362 21.6807 11.2804 19.9529 11.2804C19.1054 11.2804 18.4449 11.5546 17.972 12.1037C17.4527 12.704 17.1934 13.5881 17.1934 14.7563C17.1934 15.9051 17.4231 16.7478 17.883 17.2831C18.3021 17.767 18.9357 18.0092 19.7841 18.0092C20.1006 18.0092 20.391 17.971 20.6549 17.8944L22.2472 18.8047L22.6814 18.0701" fill="#F29111"/>
<path id="Vector_5" d="M26.6739 17.9121H23.5107V11.3769H24.5751V17.1082H26.6739V17.9121" fill="#F29111"/>
<path id="Vector_6" d="M27.4321 17.9121H27.6085V17.2472H27.8393V17.1114H27.1924V17.2472H27.4321V17.9121ZM28.7742 17.9121H28.9404V17.1114H28.6904L28.4869 17.6572L28.2654 17.1114H28.0244V17.9121H28.1817V17.3027H28.1907L28.4227 17.9121H28.5425L28.7742 17.3027V17.9121Z" fill="#F29111"/>
<path id="Vector_7" fill-rule="evenodd" clip-rule="evenodd" d="M28.0093 9.18858C27.366 9.17277 26.8678 9.23584 26.4499 9.40969C26.3294 9.45702 26.1367 9.45702 26.1202 9.60707C26.185 9.67013 26.1927 9.77269 26.2494 9.85993C26.3455 10.0178 26.514 10.2307 26.667 10.3415C26.8358 10.4679 27.0046 10.5938 27.1817 10.7043C27.4949 10.8947 27.8487 11.0047 28.1537 11.1943C28.3311 11.3047 28.5073 11.4467 28.6847 11.5655C28.7728 11.6286 28.8286 11.7314 28.9416 11.7705V11.7466C28.8849 11.6757 28.8691 11.5731 28.8131 11.4937C28.7329 11.4153 28.6524 11.3438 28.5719 11.2652C28.3386 10.9573 28.0489 10.6891 27.7362 10.4679C27.4788 10.2938 26.9158 10.0568 26.8118 9.76557C26.8118 9.76557 26.8034 9.7572 26.7955 9.74943C26.9723 9.7334 27.1817 9.67013 27.3503 9.62224C27.6232 9.55138 27.8724 9.5674 28.1537 9.49655C28.2825 9.46473 28.4111 9.42498 28.5403 9.38616V9.31459C28.3948 9.17278 28.2907 8.98297 28.1381 8.84887C27.7285 8.50156 27.2779 8.16228 26.8118 7.87758C26.5623 7.71962 26.2408 7.61747 25.9755 7.4829C25.8795 7.43545 25.7189 7.41206 25.6624 7.33265C25.5176 7.159 25.4369 6.93031 25.3327 6.72469C25.0998 6.29088 24.8743 5.80938 24.6737 5.35066C24.5291 5.04293 24.4407 4.7352 24.2638 4.45076C23.4355 3.10816 22.5357 2.29531 21.1532 1.49765C20.8558 1.33164 20.5022 1.26061 20.1247 1.17373C19.9235 1.16546 19.7227 1.15011 19.5218 1.14235C19.393 1.08684 19.2642 0.936689 19.1519 0.865663C18.6935 0.581554 17.5125 -0.0342388 17.1747 0.778945C16.9577 1.2925 17.4962 1.79762 17.6812 2.05828C17.8177 2.23964 17.9948 2.4453 18.0908 2.65028C18.1471 2.78457 18.1632 2.92696 18.2197 3.06885C18.3482 3.41622 18.4686 3.80325 18.6377 4.12717C18.7258 4.29301 18.8222 4.46695 18.9346 4.61626C18.9996 4.70365 19.1117 4.74263 19.1359 4.88519C19.0238 5.04293 19.015 5.2798 18.9508 5.47736C18.6616 6.36967 18.7739 7.47506 19.184 8.13033C19.3123 8.3277 19.6181 8.76213 20.0281 8.59592C20.3897 8.45404 20.3094 8.00393 20.4138 7.60937C20.4378 7.51394 20.4217 7.45134 20.4698 7.38826V7.40422C20.5822 7.62499 20.6951 7.83765 20.7995 8.05949C21.049 8.446 21.4826 8.8488 21.8446 9.11701C22.037 9.25969 22.1898 9.50407 22.4309 9.59119V9.56734H22.4151C22.3667 9.49648 22.2946 9.46466 22.2302 9.40963C22.0856 9.26741 21.9252 9.09362 21.8122 8.93579C21.4747 8.49378 21.1769 8.00393 20.9123 7.49865C20.7833 7.25329 20.671 6.98507 20.5664 6.74044C20.5183 6.64613 20.5184 6.50359 20.4378 6.45634C20.3169 6.62986 20.1405 6.78011 20.0523 6.99265C19.8994 7.33258 19.8835 7.75099 19.8268 8.18548C19.7948 8.19373 19.811 8.18548 19.7948 8.20117C19.5379 8.13804 19.4495 7.87752 19.3528 7.65715C19.1117 7.09578 19.0712 6.19566 19.2805 5.5481C19.3365 5.38259 19.5783 4.86145 19.4814 4.70354C19.4328 4.55288 19.2723 4.46684 19.184 4.3479C19.0798 4.19791 18.9666 4.00879 18.895 3.84261C18.702 3.40059 18.6049 2.91082 18.3966 2.4688C18.3001 2.26314 18.1309 2.04989 17.9948 1.86077C17.8417 1.64752 17.6731 1.49754 17.5524 1.24515C17.5125 1.15809 17.4562 1.01587 17.5203 0.92139C17.5361 0.858123 17.5687 0.834333 17.6331 0.818475C17.737 0.73159 18.0348 0.841927 18.139 0.889334C18.4366 1.00743 18.6858 1.11861 18.9346 1.28411C19.0473 1.36324 19.1679 1.51322 19.3123 1.55304H19.4814C19.7385 1.60787 20.0281 1.56839 20.2693 1.63976C20.6951 1.77388 21.0808 1.97127 21.4266 2.18452C22.4792 2.83996 23.3473 3.77192 23.9337 4.88507C24.0304 5.06643 24.0709 5.23244 24.1592 5.42157C24.328 5.80926 24.5372 6.20405 24.7057 6.58268C24.8743 6.95385 25.0354 7.33253 25.2768 7.64095C25.3971 7.80649 25.8794 7.89336 26.0965 7.98028C26.2569 8.05112 26.5064 8.11439 26.6512 8.20112C26.9244 8.36666 27.1971 8.55646 27.4547 8.73836C27.583 8.83313 27.985 9.0303 28.0093 9.18846" fill="#00758F"/>
<path id="Vector_8" fill-rule="evenodd" clip-rule="evenodd" d="M19.811 2.3258C19.6746 2.3258 19.5785 2.342 19.4814 2.36545V2.38131H19.4971C19.562 2.50733 19.6746 2.59489 19.7543 2.70523C19.8191 2.8316 19.8754 2.95745 19.9396 3.08398C19.9475 3.07623 19.9552 3.06796 19.9552 3.06796C20.0686 2.98934 20.1247 2.86314 20.1247 2.67334C20.0761 2.61767 20.0686 2.56284 20.0281 2.50733C19.98 2.42854 19.8754 2.38907 19.811 2.3258Z" fill="#00758F"/>
</g>
</g>
</g>
</svg>
