<svg width="51" height="51" viewBox="0 0 51 51" fill="none" xmlns="http://www.w3.org/2000/svg">
<path d="M45.091 14.6498C44.3789 13.4297 43.3512 12.4241 42.116 11.7386L29.366 4.70481C28.1806 4.06685 26.8554 3.73291 25.5091 3.73291C24.1629 3.73291 22.8377 4.06685 21.6523 4.70481L8.90227 11.7386C7.66707 12.4241 6.63939 13.4297 5.92727 14.6498C5.20475 15.8727 4.82319 17.2669 4.82227 18.6873V32.3086C4.83219 33.7231 5.21451 35.11 5.93074 36.3299C6.64697 37.5497 7.67186 38.5594 8.90227 39.2573L21.6523 46.2698C22.8323 46.9247 24.1596 47.2684 25.5091 47.2684C26.8587 47.2684 28.186 46.9247 29.366 46.2698L42.116 39.2361C43.3496 38.5491 44.3766 37.5442 45.0904 36.326C45.8041 35.1077 46.1786 33.7205 46.1748 32.3086V18.7936C46.2108 17.3378 45.8351 15.9015 45.091 14.6498ZM42.966 32.3086C42.9745 33.1537 42.7537 33.9854 42.3272 34.7151C41.9006 35.4447 41.2842 36.0451 40.5435 36.4523L27.7935 43.4861C27.5697 43.6121 27.3359 43.7113 27.0923 43.7836V26.4011L42.6048 17.0723C42.8003 17.5866 42.8938 18.1348 42.881 18.6873L42.966 32.3086Z" fill="url(#paint0_linear_320_326)"/>
<defs>
<linearGradient id="paint0_linear_320_326" x1="25.4997" y1="3.73291" x2="25.4997" y2="47.2684" gradientUnits="userSpaceOnUse">
<stop stop-color="#FF8000"/>
<stop offset="0.5" stop-color="#00F2FF"/>
<stop offset="1" stop-color="#4800FF"/>
</linearGradient>
</defs>
</svg>
