<svg width="34" height="20" viewBox="0 0 34 20" fill="none" xmlns="http://www.w3.org/2000/svg">
<g id="tailwindcss logo" clip-path="url(#clip0_375_88)">
<path id="Vector" d="M16.5137 0C12.1137 0 9.36363 2.21649 8.26367 6.64935C9.91367 4.43286 11.8386 3.60169 14.0387 4.15584C15.2938 4.47195 16.191 5.38948 17.1841 6.40494C18.8019 8.05935 20.6741 9.97403 24.7637 9.97403C29.1636 9.97403 31.9137 7.75753 33.0137 3.32468C31.3637 5.54117 29.4387 6.37234 27.2387 5.81818C25.9835 5.50208 25.0863 4.58455 24.0932 3.56909C22.4755 1.91468 20.6032 0 16.5137 0ZM8.26367 9.97403C3.86371 9.97403 1.11363 12.1905 0.0136719 16.6234C1.66367 14.4069 3.58863 13.5757 5.78867 14.1299C7.04383 14.446 7.94102 15.3635 8.93411 16.379C10.5519 18.0334 12.4241 19.9481 16.5137 19.9481C20.9136 19.9481 23.6637 17.7316 24.7637 13.2987C23.1137 15.5152 21.1887 16.3464 18.9887 15.7922C17.7335 15.4761 16.8363 14.5586 15.8432 13.5431C14.2255 11.8887 12.3532 9.97403 8.26367 9.97403Z" fill="url(#paint0_linear_375_88)"/>
</g>
<defs>
<linearGradient id="paint0_linear_375_88" x1="-91.6603" y1="638.338" x2="2768.98" y2="2275.49" gradientUnits="userSpaceOnUse">
<stop stop-color="#2298BD"/>
<stop offset="1" stop-color="#0ED7B5"/>
</linearGradient>
<clipPath id="clip0_375_88">
<rect width="33" height="20" fill="white" transform="translate(0.0136719)"/>
</clipPath>
</defs>
</svg>
