<svg width="72" height="72" viewBox="0 0 72 72" fill="none" xmlns="http://www.w3.org/2000/svg">
<path d="M69.8431 11.3782L37.9758 68.3634C37.3173 69.5401 35.6269 69.5467 34.9595 68.3767L2.4598 11.3849C1.73138 10.1078 2.82151 8.56276 4.26892 8.82073L36.1706 14.5221C36.3742 14.5593 36.5828 14.5593 36.7864 14.5221L68.0201 8.8296C69.4614 8.5672 70.5582 10.0995 69.8431 11.3782Z" fill="url(#paint0_linear_166_136)"/>
<path d="M51.3652 1.34262L27.784 5.96277C27.5958 5.99955 27.4251 6.0978 27.2988 6.24209C27.1725 6.38639 27.0977 6.56855 27.0861 6.75998L25.6343 31.2632C25.6265 31.3976 25.6501 31.5319 25.7032 31.6556C25.7563 31.7793 25.8374 31.8889 25.9403 31.9758C26.0431 32.0626 26.1647 32.1244 26.2955 32.1561C26.4263 32.1879 26.5627 32.1887 26.6939 32.1586L33.2602 30.6413C33.4016 30.6088 33.5489 30.6123 33.6886 30.6516C33.8283 30.6908 33.9559 30.7645 34.0597 30.8659C34.1635 30.9673 34.2402 31.0931 34.2827 31.2318C34.3253 31.3705 34.3323 31.5177 34.3032 31.6599L32.352 41.2125C32.3222 41.3595 32.3311 41.5118 32.3777 41.6544C32.4244 41.7969 32.5073 41.9249 32.6183 42.0259C32.7293 42.1268 32.8646 42.1972 33.0109 42.2301C33.1573 42.2631 33.3097 42.2575 33.4532 42.2139L37.5075 40.9806C38.1361 40.7898 38.7408 41.3423 38.6088 41.9859L35.5076 56.9908C35.3145 57.9295 36.5627 58.441 37.0831 57.6366L37.4299 57.0995L56.6472 18.7481C56.9701 18.1045 56.4136 17.3722 55.7096 17.5087L48.9497 18.8135C48.8043 18.8418 48.654 18.8322 48.5133 18.7856C48.3726 18.7391 48.2463 18.6571 48.1464 18.5477C48.0465 18.4382 47.9765 18.3049 47.9429 18.1606C47.9094 18.0162 47.9136 17.8657 47.955 17.7234L52.3655 2.43275C52.4069 2.28997 52.4109 2.13893 52.377 1.99416C52.3432 1.8494 52.2726 1.71581 52.172 1.60626C52.0715 1.49672 51.9445 1.41491 51.8032 1.36873C51.6618 1.32255 51.511 1.31356 51.3652 1.34262Z" fill="url(#paint1_linear_166_136)"/>
<defs>
<linearGradient id="paint0_linear_166_136" x1="1.66548" y1="6.78449" x2="41.3283" y2="60.6497" gradientUnits="userSpaceOnUse">
<stop stop-color="#41D1FF"/>
<stop offset="1" stop-color="#BD34FE"/>
</linearGradient>
<linearGradient id="paint1_linear_166_136" x1="34.3392" y1="2.59639" x2="41.5141" y2="51.8149" gradientUnits="userSpaceOnUse">
<stop stop-color="#FFEA83"/>
<stop offset="0.083" stop-color="#FFDD35"/>
<stop offset="1" stop-color="#FFA800"/>
</linearGradient>
</defs>
</svg>
